<svg xmlns="http://www.w3.org/2000/svg" xmlns:xlink="http://www.w3.org/1999/xlink" width="70" height="74" viewBox="0 0 70 74">
  <defs>
    <clipPath id="clip-Third_logo">
      <rect width="70" height="74"/>
    </clipPath>
  </defs>
  <g id="Third_logo" data-name="Third logo" clip-path="url(#clip-Third_logo)">
    <g id="Group_1598" data-name="Group 1598" transform="translate(12149.84 -2730.04)">
      <path id="Path_593" data-name="Path 593" d="M444.722,900.36h1.891v12.991H436.06a49.392,49.392,0,0,1,8.662-12.991" transform="translate(-12549.111 1851.298)" fill="#a8b5bc" fill-rule="evenodd"/>
      <path id="Path_594" data-name="Path 594" d="M437.156,900.36h2.87a48.479,48.479,0,0,0-8.423,12.991h-.074V908.07a57.947,57.947,0,0,1,5.635-7.71" transform="translate(-12546.664 1851.298)" fill="#a8b5bc" fill-rule="evenodd"/>
      <path id="Path_595" data-name="Path 595" d="M431.51,900.36h3.179q-1.691,2.008-3.179,4.14Z" transform="translate(-12546.655 1851.297)" fill="#a8b5bc" fill-rule="evenodd"/>
      <path id="Path_596" data-name="Path 596" d="M426.723,892.64v2.176h-1.4c.46-.736.92-1.463,1.4-2.176" transform="translate(-12543.313 1855.466)" fill="#a8b5bc" fill-rule="evenodd"/>
      <path id="Path_597" data-name="Path 597" d="M421.966,880.05v2.985a50.857,50.857,0,0,0-3.514,4.982H416.51a46.065,46.065,0,0,1,5.456-7.967" transform="translate(-12538.555 1862.265)" fill="#a8b5bc" fill-rule="evenodd"/>
      <path id="Path_598" data-name="Path 598" d="M400.929,869.14h12.618v2.82a46,46,0,0,0-7.567,10.166h-5.06Z" transform="translate(-12530.135 1868.156)" fill="#a8b5bc" fill-rule="evenodd"/>
      <path id="Path_599" data-name="Path 599" d="M426.82,922.67V925.4H425.5q.607-1.38,1.32-2.728" transform="translate(-12543.409 1839.25)" fill="#a8b5bc" fill-rule="evenodd"/>
      <path id="Path_600" data-name="Path 600" d="M422.835,904.76v4.278a47.731,47.731,0,0,0-3.528,6.689H418.12a45.813,45.813,0,0,1,4.715-10.967" transform="translate(-12539.424 1848.922)" fill="#a8b5bc" fill-rule="evenodd"/>
      <path id="Path_601" data-name="Path 601" d="M417.583,900.36h1.656a47.31,47.31,0,0,0-6.026,12.991H412.5a48.76,48.76,0,0,1,5.083-12.991" transform="translate(-12536.39 1851.298)" fill="#a8b5bc" fill-rule="evenodd"/>
      <path id="Path_602" data-name="Path 602" d="M410.118,900.36h1.84a48.557,48.557,0,0,0-5.18,12.991h-.819a45.432,45.432,0,0,1,4.14-12.991" transform="translate(-12532.857 1851.297)" fill="#a8b5bc" fill-rule="evenodd"/>
      <path id="Path_603" data-name="Path 603" d="M400.94,900.36h4.329a45.493,45.493,0,0,0-4.255,12.991h-.074Z" transform="translate(-12530.147 1851.297)" fill="#a8b5bc" fill-rule="evenodd"/>
      <path id="Path_604" data-name="Path 604" d="M431.52,873.025c.492-.078.29-.239.856-.837l.718-.888a18.976,18.976,0,0,1,1.5-1.78,49.056,49.056,0,0,1,6.753-6.242c.5-.4,2.7-1.992,3.312-2.341.336-.193.386-.133.4-.46-.46-.156-.566,0-.879.207-1.734,1.15-1.1,1-2.677,1.04.041-.418.271-.488.575-.7l1.477-1.03a2.645,2.645,0,0,0,.7-.547,1.141,1.141,0,0,0-.989.11c-.6.46-2.41,1.633-2.944,2.089a62.507,62.507,0,0,0-7.7,7.392c-.267.317-.511.662-.75.92-.46.51-.345.575-.345,1.38v1.725m0-7.36v2.346c.46-.087.3-.2.566-.492l1.463-1.546a75.742,75.742,0,0,1,5.851-5.106c.225-.175.46-.147.428-.538-.538-.11-.566.028-.892.281l-1.081.819c-.147.11-.207.207-.368.258a8.389,8.389,0,0,1-1.288.032c.032-.35.3-.557.722-.957a52.449,52.449,0,0,1,5.52-4.476c.313-.221.81-.432.823-.782a4.365,4.365,0,0,0-1.785.865l-1.605,1.118c-1.04.74-2.162,1.656-3.142,2.383-.534.391-.92.865-1.44,1.27a36.229,36.229,0,0,0-2.737,2.719c-1.136,1.26-1.04.833-1.04,1.753Zm6.9,9.2h2.475c.46,0,.386.037.676-.2,1.513-1.265,2.7-2.549,4.411-3.9.29-.23.92-.46.644-.92-.345-.354-1.615,1.279-2.263,1.288-.032-.653-.083-.745.34-1.04l1.628-1.168c.317-.239.6-.368.846-.548.152-.11.713-1.242-1.228.1a68.385,68.385,0,0,0-6.118,4.917c-.294.262-.432.386-.722.681-.557.529-.593.285-.676.713Zm-6.9-13.023v2.042a20.434,20.434,0,0,1,2.82-2.636,7.885,7.885,0,0,0,.92-.8c-.373-.524-.8,0-1.651.708-1.086.874-.419.474-2.065.607ZM432.56,874.9c.322.028,2.921.032,3.1-.023s.083,0,.221-.143c.672-.612,1.743-2,2.843-2.949l2.457-2.153c1.546-1.265,2.866-2.13,4.439-3.248.483-.34,0-.86-.391-.534-.483.4-.566.63-.92.612-.032-.506,0-1.067,0-1.582,0-.672.216-.676.607-.975.313-.235.6-.46.92-.681l.7-.46c.262-.179.11,0,.221-.239-.244-.589-.718-.18-1.081.074-1.035.731-1.84,1.219-2.958,2.075-.648.492-1.26,1.007-1.872,1.477-.69.534-3.841,3.34-4.43,4.021-.879,1.012-1.421,1.449-2.4,2.7l-1.1,1.407c-.193.166-.3.152-.331.538Z" transform="translate(-12546.66 1875.5)" fill="#e19565" fill-rule="evenodd"/>
      <path id="Path_605" data-name="Path 605" d="M425.58,1005.444c0-.437-.156-.658-.46-.658s-.46.221-.46.658v.46c0,.46.161.662.46.662s.46-.221.46-.662Zm.667.46a1.264,1.264,0,0,1-.331.957,1.3,1.3,0,0,1-1.624,0,1.265,1.265,0,0,1-.331-.957v-.46a1.28,1.28,0,0,1,.331-.957,1.316,1.316,0,0,1,1.624,0,1.279,1.279,0,0,1,.331.957Zm-16.956-1.09a.054.054,0,0,0-.051-.06c-.023,0-.046,0-.055.06l-.46,2.226a.074.074,0,0,1-.025.051.073.073,0,0,1-.053.018H408.1c-.046,0-.069,0-.069-.06l.58-2.415a.525.525,0,0,1,.258-.354,1.05,1.05,0,0,1,.773,0,.529.529,0,0,1,.248.354l.58,2.415c0,.041-.023.06-.064.06h-.538a.074.074,0,0,1-.078-.069Zm-14.826,2.176c0,.046-.032.074-.087.092a1.638,1.638,0,0,1-.216.042,3.06,3.06,0,0,1-.359,0,1.142,1.142,0,0,1-.791-.271,1,1,0,0,1-.253-.377,1.6,1.6,0,0,1-.1-.58v-.488a1.6,1.6,0,0,1,.1-.58.947.947,0,0,1,.621-.584,1.517,1.517,0,0,1,.423-.06,3.008,3.008,0,0,1,.359,0,1.658,1.658,0,0,1,.216.042.087.087,0,0,1,.087.087v.373a.069.069,0,0,1-.074.078h-.584a.423.423,0,0,0-.34.138.777.777,0,0,0-.138.515v.52a.79.79,0,0,0,.138.52.46.46,0,0,0,.34.133h.584a.069.069,0,0,1,.074.078Zm-16.473-2.176a.054.054,0,0,0-.051-.06c-.023,0-.046,0-.055.06l-.235,1.067h.575Zm1.164,2.236c0,.041-.023.06-.064.06h-.525c-.041,0-.064,0-.074-.069l-.143-.63h-.791l-.138.63a.074.074,0,0,1-.078.069h-.524c-.046,0-.069,0-.069-.06l.58-2.415a.525.525,0,0,1,.258-.354.823.823,0,0,1,.386-.074.838.838,0,0,1,.386.074.528.528,0,0,1,.248.354Zm-16.1,0q0,.055-.069.055h-.511c-.041,0-.06,0-.06-.074v-1.642a.036.036,0,0,0-.032.027l-.345.635a.128.128,0,0,1-.12.064h-.308a.124.124,0,0,1-.115-.064l-.35-.635a.027.027,0,0,0-.028-.027c-.028,0,0,0,0,.032v1.61c0,.051-.023.074-.064.074h-.511c-.041,0-.064,0-.064-.055v-2.682c0-.087.046-.129.138-.129h.363a.179.179,0,0,1,.17.1l.589,1.1a.05.05,0,0,0,.046.051c.014,0,.023,0,.041-.051l.589-1.1a.183.183,0,0,1,.17-.1h.363c.092,0,.143.041.143.133Z" transform="translate(-12508.299 1795.237)" fill="#a8b5bc"/>
      <path id="Path_606" data-name="Path 606" d="M393.1,962.158l-.952-9.15-.952,9.15Zm.92,8.942-.616-5.929h-2.539l-.616,5.929h-3.243l2.3-22.283h5.635l2.323,22.283Zm16.56-19.707v8.533h1.035a1.035,1.035,0,0,0,1.035-1.035v-6.463a1.035,1.035,0,0,0-1.035-1.035Zm-3.22-2.576h4.784a3.836,3.836,0,0,1,3.827,3.827v6.334a3.62,3.62,0,0,1-3.611,3.611h-1.78v8.51h-3.22Zm15.332,8.28v-4.918a1,1,0,0,0-1.992,0v15.9a1,1,0,0,0,1.992,0v-11Zm-1.743-8.69h1.5a3.648,3.648,0,0,1,3.634,3.634v16.073a3.648,3.648,0,0,1-3.634,3.634h-1.5a3.643,3.643,0,0,1-3.634-3.634V952.024a3.643,3.643,0,0,1,3.634-3.634Zm-22.264,22.711h3.22V952.047h4.172v-3.22h-7.392V971.11Zm-21.478-22.283-5.419,22.2h-3.321l2.015-8.28-3.395-13.929h3.321l1.739,7.121,1.734-7.121Zm-15.728,2.576v8.533h1.035a1.035,1.035,0,0,0,1.03-1.035v-6.481a1.035,1.035,0,0,0-1.03-1.035Zm-3.22-2.576h4.789a3.841,3.841,0,0,1,3.827,3.827V959a3.625,3.625,0,0,1-3.616,3.611h-1.771v8.51h-3.22v-22.3Zm22.881-.428h1.5a3.648,3.648,0,0,1,3.634,3.634v5.06h-3.386v-4.922a1,1,0,0,0-1.992,0v15.9a1,1,0,0,0,1.992,0V962.8h3.386V968.1a3.648,3.648,0,0,1-3.634,3.634h-1.5a3.643,3.643,0,0,1-3.634-3.634V952.024a3.643,3.643,0,0,1,3.634-3.634Z" transform="translate(-12507.1 1825.362)" fill="#a8b5bc" fill-rule="evenodd"/>
    </g>
  </g>
</svg>
