<svg xmlns="http://www.w3.org/2000/svg" xmlns:xlink="http://www.w3.org/1999/xlink" width="121" height="43" viewBox="0 0 121 43">
  <defs>
    <clipPath id="clip-First_logo">
      <rect width="121" height="43"/>
    </clipPath>
  </defs>
  <g id="First_logo" data-name="First logo" clip-path="url(#clip-First_logo)">
    <g id="Group_1596" data-name="Group 1596" transform="translate(11905.917 -2601.754)">
      <path id="Path_623" data-name="Path 623" d="M720.621,808.727l.589-1.27.579,1.27Zm-1.318,1.187h.749l.341-.715h1.629l.35.715h.764l-1.62-3.118h-.579Zm-5.657,0h.671v-1.561h0l1.659,1.561h.973l-1.878-1.678,1.761-1.459h-.9l-1.571,1.347h0v-1.347h-.671Zm-6.455,0h.734l1.756-2.262h0v2.262h.666V806.8h-.7l-1.766,2.281h0V806.8h-.671Zm-5.025-1.756v-.895h.487c.414,0,.812.068.812.438s-.4.457-.837.457Zm-.666,1.756h.666v-1.289h.516c.8,0,1.459-.238,1.459-.924s-.555-.9-1.415-.9H701.5Zm-5.171-.486v-.915h.6c.486,0,.783.156.783.457s-.306.457-.783.457Zm-.666.486H697c.783,0,1.386-.287,1.386-.924s-.608-.924-1.391-.924h-.666v-.8h1.795v-.486h-2.461Zm-5.351-1.187.593-1.27.579,1.27ZM689,809.914h.749l.336-.715h1.635l.35.715h.764l-1.62-3.118h-.579Zm-4.247-.788v-1.639c.705.044,1.026.37,1.026.827s-.316.754-1.021.812Zm-.691,0c-.705-.058-1.021-.341-1.021-.812s.316-.783,1.021-.827Zm0,.866h.691v-.375c.973,0,1.746-.525,1.746-1.309s-.7-1.279-1.746-1.309v-.282h-.686V807c-1.051.029-1.746.486-1.746,1.309s.749,1.3,1.746,1.309Zm-9.977-1.776c-.486,0-.817-.151-.817-.486s.321-.487.793-.487h.521v.973Zm-1.664,1.7h.812l.88-1.245h.486v1.245h.671V806.8h-1.231c-.856,0-1.42.272-1.42.929,0,.457.316.759.827.871Zm-5.03-1.187.589-1.27.579,1.27Zm-1.318,1.187h.773l.341-.715h1.605l.35.715h.764l-1.6-3.118h-.579Zm-5.657,0h.671v-1.561h0l1.654,1.561h.939l-1.873-1.678,1.756-1.459h-.9l-1.571,1.347h0v-1.347h-.671Zm-2.919-2.719a1.946,1.946,0,0,0-1.367-.487c-1.158,0-2.038.633-2.038,1.63s.832,1.644,2.009,1.644a1.946,1.946,0,0,0,1.459-.545l-.54-.311a1.193,1.193,0,0,1-.91.36,1.148,1.148,0,0,1-1.275-1.148,1.309,1.309,0,0,1,2.155-.817Zm-8.269.973v-.895h.486c.418,0,.812.068.812.438s-.394.457-.832.457Zm-.667,1.756h.667v-1.289h.516c.8,0,1.459-.238,1.459-.924s-.555-.9-1.416-.9h-1.226Zm-5.7,0h2.588v-.487h-1.917v-.88h1.722v-.486h-1.722v-.793h1.819v-.486h-2.491Zm-4.714,0h.671v-2.632h1.153v-.486H637v.486h1.148Zm-7.209,0h.73l1.761-2.262h0v2.262h.666v-3.118h-.72l-1.761,2.281h0v-2.281h-.666Zm-5.837-.487a2.7,2.7,0,0,0,.487-1.766V807.3H626.9v2.14Zm-1.07,1.2h.6v-.725h2.744v.71h.6v-1.2h-.418V806.8h-2.632v.8a2.358,2.358,0,0,1-.574,1.824h-.311Zm-6.042-.71h.7v-1.381h1.756v1.381h.671V806.81h-.671v1.26h-1.756v-1.26h-.671Zm-6.416-1.566a1.3,1.3,0,1,1,1.294,1.148,1.177,1.177,0,0,1-1.294-1.163Zm-.725,0c0,.973.856,1.644,2.014,1.644s2.029-.671,2.029-1.644-.856-1.63-2.029-1.63-2.014.6-2.014,1.615Zm-5.721,1.566h.671v-1.562h0l1.649,1.562h.939l-1.863-1.693,1.756-1.459h-.9l-1.571,1.347h0v-1.347h-.671Z" transform="translate(-12508.994 1834.309)" fill="#1a1a18"/>
      <path id="Path_624" data-name="Path 624" d="M661.812,726.5c33.346,0,60.377,7.958,60.377,17.779s-27.031,17.775-60.377,17.775S601.44,754.1,601.44,744.279,628.467,726.5,661.812,726.5" transform="translate(-12507.1 1875.5)" fill="#a2181a" fill-rule="evenodd"/>
      <path id="Path_625" data-name="Path 625" d="M694.5,753.433a1.119,1.119,0,0,1-2.028-.934,22.881,22.881,0,0,1,6.231-8.42,9.529,9.529,0,0,1,7.822-2.062c1.61.311,2.5.973,2.851,1.766a2.37,2.37,0,0,1-.336,2.3,6.634,6.634,0,0,1-1.654,1.644c-2.35,1.727-6.407,3.138-8.518,2.432a1.119,1.119,0,0,1,.691-2.126c1.459.486,4.6-.715,6.509-2.121a4.627,4.627,0,0,0,1.114-1.065l.141-.209c-.063-.141-.428-.292-1.221-.443a7.39,7.39,0,0,0-6.042,1.639,20.444,20.444,0,0,0-5.56,7.584m26.185-17.585a1.119,1.119,0,0,1,1.2,1.887,38.208,38.208,0,0,0-6.907,5.234,23.885,23.885,0,0,0-4.417,6.44l-.127.243a10.536,10.536,0,0,0-.525,1.143,12.1,12.1,0,0,0,3.405,0,13.079,13.079,0,0,0,3.892-1.065,9.272,9.272,0,0,0,3.157-2.218l.029-.039h-.1a21.713,21.713,0,0,0-3.021-.161,11.483,11.483,0,0,0-2.865.428,1.119,1.119,0,1,1-.6-2.15,14.013,14.013,0,0,1,3.405-.487,24.86,24.86,0,0,1,3.322.17,2.955,2.955,0,0,1,1.644.618,1.718,1.718,0,0,1,.6,1.659,3.046,3.046,0,0,1-.652,1.362,11.54,11.54,0,0,1-3.965,2.865,15.305,15.305,0,0,1-4.6,1.265,12.858,12.858,0,0,1-4.66-.175c-1.348-.384-1.508-1.362-1.172-2.534a9.943,9.943,0,0,1,.72-1.664l.117-.238a26.112,26.112,0,0,1,4.835-7.029A41.16,41.16,0,0,1,720.685,735.833ZM644.416,749.59l1.07.3h0c.564.175,1.459.487,2.335.754l1.148.375.759-1.245c.88-1.43,1.756-2.865,2.539-4.334A26.979,26.979,0,0,0,647,747.868C646.119,748.393,645.257,748.972,644.416,749.59Zm-17.643-7.579a1.119,1.119,0,0,1-2.228-.195c.112-1.24-.258-1.785-.895-1.839-1.683-.146-4.553,1.352-7.272,3.463s-5.307,4.9-6.222,7.18c-.535,1.338-.389,2.461.919,2.987,1.994.8,6-.778,10.376-3.21,4.616-2.52,9.665-5.969,13.572-8.644,4.315-2.958,9.242-6.562,13.557-9.729l1.231-.9a1.119,1.119,0,0,1,1.459,1.693,86.512,86.512,0,0,0-7.652,9.121,52.521,52.521,0,0,0-4.251,6.883l2.272.112a35.217,35.217,0,0,1,4.218-2.967,27.613,27.613,0,0,1,8.27-3.342,1.124,1.124,0,0,1,1.26,1.542,41.135,41.135,0,0,1-2.228,4.256c1.381-1.036,2.85-2.1,4.3-3.074a38.771,38.771,0,0,1,6.241-3.6,1.114,1.114,0,0,1,1.459.608,1.08,1.08,0,0,1,.054.686,43.27,43.27,0,0,1-1.557,4.864c-.185.487-.38.973-.579,1.459,2.286-1.81,4.49-3.775,6.684-5.73l.486-.443a1.119,1.119,0,0,1,1.761,1.3c-.195.53-.486,1.338-.783,2.14-.258.7-.486,1.4-.827,2.247l-.846,2.276a.828.828,0,0,0-.054.6,1.415,1.415,0,0,0,.856.564,7.221,7.221,0,0,0,2.311.3,13.93,13.93,0,0,0,4.612-.842,1.124,1.124,0,0,1,.6-.243,7.007,7.007,0,0,0,1.917-1.2,3.347,3.347,0,0,0,.924-1.245.879.879,0,0,0-.039-.71c-.156-.292-1.717-.049-2.461.063a3.417,3.417,0,0,1-.681.068H677.5a.927.927,0,0,1-.16,0h-.092a1.044,1.044,0,0,1-.341-.161h0a1.017,1.017,0,0,1-.37-1.459,1.188,1.188,0,0,1,.336-.4l.175-.117.146-.078a9.378,9.378,0,0,0,2.865-1.946,3.932,3.932,0,0,0-1.216-.068,7.649,7.649,0,0,0-1.946.452c-.734.253-1.547.6-2.359.973a1.119,1.119,0,0,1-.919-2.038c.832-.375,1.688-.74,2.554-1.041a9.913,9.913,0,0,1,2.529-.574,4.986,4.986,0,0,1,2.739.486,1.911,1.911,0,0,1,.973,1.289,2.111,2.111,0,0,1-.37,1.6,4.3,4.3,0,0,1-.739.851,2.252,2.252,0,0,1,1.343,1.07,3,3,0,0,1,.185,2.466,5.429,5.429,0,0,1-1.522,2.184l-.112.1a11.811,11.811,0,0,0,6.231-1.352,15.182,15.182,0,0,0,3.016-2.1l-.384.185a5.886,5.886,0,0,1-3.4.6,2.432,2.432,0,0,1-1.459-.876,2.34,2.34,0,0,1-.443-1.78,8.1,8.1,0,0,1,2.2-3.94,1.114,1.114,0,1,1,1.678,1.459,6.1,6.1,0,0,0-1.659,2.734.6.6,0,0,0,0,.156.643.643,0,0,0,.161.044,3.649,3.649,0,0,0,2.043-.433,23.347,23.347,0,0,0,3.376-2.033,18.839,18.839,0,0,0,2.7-2.2,1.119,1.119,0,0,1,1.878,1.2,22.085,22.085,0,0,1-8.615,8.955,14.156,14.156,0,0,1-10.366,1.133,16.281,16.281,0,0,1-5.419,1.012,9.452,9.452,0,0,1-3.035-.413,3.488,3.488,0,0,1-2.174-1.761,2.918,2.918,0,0,1,0-2.3l.973-2.583a77.873,77.873,0,0,1-7.394,5.837,1.119,1.119,0,0,1-1.712-1.357c.769-1.571,1.562-3.361,2.247-5.181.282-.744.55-1.493.788-2.238-1.129.637-2.374,1.425-3.643,2.291-2.919,1.985-6,4.344-8.124,6.081a1.1,1.1,0,0,1-1.109.258c-.564-.175-1.459-.486-2.335-.754-.715-.234-1.435-.487-2.315-.749h0l-2.554-.7q-1.335,1.146-2.588,2.432a1.115,1.115,0,0,1-1.586-1.566c.375-.384.764-.759,1.153-1.129l-1.581-.083a1.083,1.083,0,0,1-.457-.092,1.119,1.119,0,0,1-.574-1.459,50.157,50.157,0,0,1,5.186-8.756q.691-.973,1.459-1.946c-2.374,1.717-4.748,3.405-6.966,4.933-3.935,2.695-9.023,6.168-13.766,8.756-4.942,2.695-9.549,4.4-12.288,3.308s-3.186-3.323-2.16-5.891c1.065-2.651,3.892-5.745,6.932-8.114s6.572-4.125,8.824-3.926C625.829,737.925,627.021,739.209,626.773,742.011Z" transform="translate(-12510.299 1873.249)" fill="#869494"/>
      <path id="Path_626" data-name="Path 626" d="M694.5,752.446a1.119,1.119,0,0,1-2.028-.934,22.881,22.881,0,0,1,6.231-8.42,9.529,9.529,0,0,1,7.822-2.062c1.61.311,2.5.948,2.85,1.761a2.374,2.374,0,0,1-.336,2.306,6.627,6.627,0,0,1-1.654,1.644c-2.35,1.727-6.406,3.138-8.518,2.432a1.115,1.115,0,1,1,.691-2.121c1.459.487,4.6-.715,6.509-2.121a4.627,4.627,0,0,0,1.114-1.065l.141-.209c-.063-.141-.428-.292-1.221-.447a7.409,7.409,0,0,0-6.042,1.644,20.443,20.443,0,0,0-5.56,7.584m26.185-17.595a1.119,1.119,0,0,1,1.2,1.887,37.98,37.98,0,0,0-6.907,5.239,23.858,23.858,0,0,0-4.4,6.44l-.126.248a10.492,10.492,0,0,0-.525,1.143,12.094,12.094,0,0,0,3.405,0,13.076,13.076,0,0,0,3.892-1.065,9.269,9.269,0,0,0,3.157-2.218l.029-.039h-.1a21.718,21.718,0,0,0-3.021-.161,11.48,11.48,0,0,0-2.865.428,1.119,1.119,0,1,1-.6-2.15,13.55,13.55,0,0,1,3.405-.486,24.058,24.058,0,0,1,3.322.165,2.987,2.987,0,0,1,1.644.618,1.727,1.727,0,0,1,.6,1.664,3.046,3.046,0,0,1-.652,1.362,11.469,11.469,0,0,1-3.964,2.86,15.307,15.307,0,0,1-4.6,1.27,12.968,12.968,0,0,1-4.66-.175c-1.347-.384-1.508-1.362-1.172-2.535a10.171,10.171,0,0,1,.72-1.668l.117-.233a26.11,26.11,0,0,1,4.821-7.034A41.164,41.164,0,0,1,720.685,734.842ZM644.416,748.6l1.07.292h0c.564.175,1.459.487,2.335.754l1.148.375.759-1.25c.88-1.43,1.756-2.86,2.539-4.329A26.714,26.714,0,0,0,647,746.876C646.119,747.406,645.257,747.985,644.416,748.6Zm-17.643-7.579a1.119,1.119,0,0,1-2.228-.195c.112-1.24-.258-1.785-.895-1.839-1.683-.151-4.553,1.352-7.272,3.459s-5.307,4.908-6.222,7.185c-.535,1.338-.389,2.461.919,2.987,1.994.8,5.974-.783,10.39-3.2,4.616-2.52,9.666-5.969,13.572-8.644,4.315-2.957,9.242-6.562,13.557-9.753l1.231-.9a1.116,1.116,0,0,1,1.459,1.688,87,87,0,0,0-7.652,9.126,51.9,51.9,0,0,0-4.251,6.883l2.272.112a35.244,35.244,0,0,1,4.217-2.967,27.614,27.614,0,0,1,8.27-3.342,1.085,1.085,0,0,1,.686.073,1.114,1.114,0,0,1,.574,1.459,41.591,41.591,0,0,1-2.228,4.256c1.381-1.036,2.85-2.1,4.3-3.079a38.68,38.68,0,0,1,6.241-3.6,1.116,1.116,0,0,1,1.513,1.294,43.245,43.245,0,0,1-1.557,4.889c-.185.486-.379.973-.579,1.459,2.286-1.8,4.49-3.77,6.684-5.725l.486-.443a1.119,1.119,0,0,1,1.761,1.3c-.195.525-.486,1.333-.783,2.14-.258.7-.486,1.4-.827,2.247l-.846,2.277a.827.827,0,0,0-.054.6,1.415,1.415,0,0,0,.856.564,7.353,7.353,0,0,0,2.311.3,14.053,14.053,0,0,0,4.611-.841,1.094,1.094,0,0,1,.6-.248,6.988,6.988,0,0,0,1.917-1.2,3.323,3.323,0,0,0,.924-1.25.87.87,0,0,0-.039-.705c-.156-.292-1.717-.049-2.461.063a3.818,3.818,0,0,1-.681.068h-.282a1.04,1.04,0,0,1-.34-.161h0a1.017,1.017,0,0,1-.37-1.459,1.186,1.186,0,0,1,.336-.4,1.1,1.1,0,0,1,.175-.117l.146-.078a9.373,9.373,0,0,0,2.865-1.946,4.118,4.118,0,0,0-1.216-.063,7.647,7.647,0,0,0-1.946.452c-.734.253-1.547.6-2.359.973a1.116,1.116,0,0,1-.919-2.033c.832-.374,1.688-.739,2.554-1.041a9.908,9.908,0,0,1,2.53-.574,4.942,4.942,0,0,1,2.739.486,1.912,1.912,0,0,1,.973,1.284,2.12,2.12,0,0,1-.37,1.6,4.43,4.43,0,0,1-.739.851,2.252,2.252,0,0,1,1.343,1.07,3,3,0,0,1,.185,2.466,5.462,5.462,0,0,1-1.523,2.184l-.112.1a11.854,11.854,0,0,0,6.231-1.352,15.176,15.176,0,0,0,3.016-2.1l-.384.185a5.888,5.888,0,0,1-3.405.6,2.433,2.433,0,0,1-1.459-.876,2.349,2.349,0,0,1-.443-1.785,8.091,8.091,0,0,1,2.2-3.935,1.114,1.114,0,1,1,1.678,1.459,6.119,6.119,0,0,0-1.659,2.734.126.126,0,0,0,.146.2,3.648,3.648,0,0,0,2.043-.433,23.372,23.372,0,0,0,3.376-2.033,19.186,19.186,0,0,0,2.7-2.2,1.119,1.119,0,0,1,1.878,1.2,22.086,22.086,0,0,1-8.615,8.956,14.156,14.156,0,0,1-10.366,1.128,16.29,16.29,0,0,1-5.419,1.017,9.448,9.448,0,0,1-3.035-.414,3.488,3.488,0,0,1-2.174-1.761,2.919,2.919,0,0,1,0-2.3l.973-2.583a78.664,78.664,0,0,1-7.394,5.837,1.119,1.119,0,0,1-1.712-1.357c.769-1.571,1.561-3.366,2.247-5.181.282-.744.55-1.493.788-2.238-1.129.637-2.374,1.425-3.644,2.286-2.919,1.99-6,4.344-8.124,6.085a1.119,1.119,0,0,1-1.109.258l-2.335-.754c-.715-.238-1.435-.486-2.315-.749h0l-2.554-.7q-1.335,1.146-2.588,2.432a1.115,1.115,0,0,1-1.586-1.566c.375-.384.764-.764,1.153-1.133l-1.581-.078a1.164,1.164,0,0,1-.457-.092,1.119,1.119,0,0,1-.574-1.459,50.182,50.182,0,0,1,5.185-8.756c.462-.637.944-1.289,1.459-1.946-2.374,1.717-4.748,3.405-6.966,4.928-3.935,2.7-9.023,6.173-13.766,8.756-4.942,2.7-9.549,4.407-12.288,3.313s-3.186-3.322-2.16-5.891c1.065-2.651,3.892-5.745,6.932-8.114s6.572-4.125,8.824-3.926C625.829,736.938,627.021,738.193,626.773,741.024Z" transform="translate(-12510.299 1873.779)" fill="#fff"/>
    </g>
  </g>
</svg>
