<svg xmlns="http://www.w3.org/2000/svg" width="124.778" height="98.315" viewBox="0 0 124.778 98.315">
  <path id="Path_448" data-name="Path 448" d="M439.057,409.995h41.623a2.477,2.477,0,0,0,2.422-1.435,2.337,2.337,0,0,0,2.332,1.435h41.623l-1.166-.449a102.484,102.484,0,0,0-17.044-4.575c-1.7-.359-2.512.179-2.87.628a1.614,1.614,0,0,0-.09,1.794v.09l-7.8-1.166c.09,0,.09-.09.179-.179a1.559,1.559,0,0,0,.538-.987c0-.987-.718-1.7-2.063-1.973a71.818,71.818,0,0,0-13.545-1.256,73.12,73.12,0,0,0-13.725,1.256c-1.346.269-2.153,1.076-2.063,1.973a1.24,1.24,0,0,0,.538.987l.179.179-7.8,1.166v-.09a1.833,1.833,0,0,0-.09-1.794c-.359-.449-1.166-.987-2.87-.628a93.054,93.054,0,0,0-17.044,4.575Zm67.726-2.422h-.09a.7.7,0,0,1-.359-.359,1.266,1.266,0,0,1-.09-.807c.538.09.987.179,1.525.269A1.724,1.724,0,0,1,506.783,407.573Zm-8.791-1.884a1.956,1.956,0,0,1-.9.359v0a.579.579,0,0,1-.448-.269,1.125,1.125,0,0,1-.09-.807h0c.538.09,1.166.09,1.7.179A.542.542,0,0,1,497.992,405.689Zm-28.436-2.153a72.089,72.089,0,0,1,13.635-1.256,70.8,70.8,0,0,1,13.456,1.256,1.986,1.986,0,0,1,1.7,1.166c-.538-.09-1.076-.09-1.615-.179a131.988,131.988,0,0,0-13.366-.9,138.927,138.927,0,0,0-13.9.987c-.448.09-.987.09-1.435.179C467.942,404.254,468.569,403.805,469.556,403.536Zm-1.7,1.794c.538-.09.987-.09,1.525-.179h.179c0,.359,0,.628-.179.807a.58.58,0,0,1-.449.179,1.25,1.25,0,0,1-.807-.359A1.96,1.96,0,0,0,467.852,405.33Zm-7.984,1.794c-.09.179-.269.359-.359.359h-.179c-.09,0-.718,0-.9-.9.538-.09,1.076-.179,1.525-.269A1.126,1.126,0,0,1,459.868,407.125Zm-2.512-1.7c1.166-.18,1.973-.09,2.422.448h0c-2.871.449-5.741,1.076-8.522,1.7a.681.681,0,0,0-.807-.269.74.74,0,0,0,.359,1.435.77.77,0,0,0,.538-.628c2.153-.538,4.306-.987,6.548-1.346a1.4,1.4,0,0,0,1.346,1.346h.269l9.509-1.435h0a1.072,1.072,0,0,0,.718-.359,1.228,1.228,0,0,0,.269-1.166,126.766,126.766,0,0,1,13.186-.9,121.583,121.583,0,0,1,12.828.9,1.391,1.391,0,0,0,.179,1.076.914.914,0,0,0,.807.449l9.509,1.435h.269v0a1.955,1.955,0,0,0,1.346-1.346c1.794.359,3.5.628,5.2,1.076a.769.769,0,0,0,.538.628.74.74,0,0,0,.359-1.435.61.61,0,0,0-.718.359c-2.332-.538-4.754-.987-7.176-1.346.359-.538,1.256-.628,2.332-.449a99.921,99.921,0,0,1,15.7,4.037H485.344a1.871,1.871,0,0,1-2.063-1.884,2.63,2.63,0,0,1,2.063-2.512,1.179,1.179,0,0,1,.807.269.854.854,0,0,0-.718.9.772.772,0,0,0,.718.718c.807,0,.987-.987.987-.987a1.075,1.075,0,0,0,.718.269.946.946,0,0,0,.718-.448,5.244,5.244,0,0,1-.9.09c-.628,0-.987-1.166-2.332-1.166a2.429,2.429,0,0,0-2.332,1.973,2.517,2.517,0,0,0-2.332-1.973c-1.346,0-1.7,1.166-2.332,1.166a5.244,5.244,0,0,1-.9-.09.945.945,0,0,0,.718.448,1.074,1.074,0,0,0,.718-.269s.09.987.987.987a.708.708,0,0,0,.718-.718.944.944,0,0,0-.718-.9,1.179,1.179,0,0,1,.807-.269,2.512,2.512,0,0,1,2.063,2.422,2.049,2.049,0,0,1-2.243,1.884H441.479A96.679,96.679,0,0,1,457.357,405.42Zm-31.486,4.575a.908.908,0,0,1,1.7-.628.7.7,0,0,1-.09.718h.448a.8.8,0,0,0,.628-.9,17.86,17.86,0,0,0-1.435-3.409l-.179-.269.269-.179c14.891-7.356,33.46-11.572,52.387-11.841,3.229-.09,4.037-1.077,4.037-1.166l.09-.179h.448l.09.179s.538.987,3.5,1.076c20.452.807,38.752,4.934,52.835,11.841l.269.179-.18.269a17.858,17.858,0,0,0-1.435,3.409.754.754,0,0,0,.628.9c.179,0,.359.09.448,0a.953.953,0,0,1-.09-.718.908.908,0,1,1,.538,1.166h0a1.689,1.689,0,0,1-.718.179.809.809,0,0,1-.448-.09,1.421,1.421,0,0,1-1.076-1.615,25.211,25.211,0,0,1,1.346-3.319c-13.994-6.817-32.114-10.854-52.3-11.661-2.422-.09-3.409-.718-3.768-1.166-.449.359-1.615,1.076-4.306,1.166-18.748.269-37.137,4.485-51.849,11.661a12.766,12.766,0,0,1,1.346,3.319,1.352,1.352,0,0,1-1.076,1.615,1.373,1.373,0,0,1-1.166-.179h0C426.5,410.713,426.05,410.443,425.871,409.995Zm11.661.9-2.153.718,2.153-.807h0l5.651-.09,2.781-.09h73.378l2.781.09,5.651.09h0l1.525,1.256-1.525-1.166-5.651.09-2.781.09H445.964l-2.781-.09ZM541.947,464a.908.908,0,1,1-1.7.628.7.7,0,0,1,.09-.718h-.448a.8.8,0,0,0-.628.9,17.856,17.856,0,0,0,1.435,3.409l.18.269-.269.179c-14.083,7-32.383,11.034-52.835,11.841-2.96.09-3.5,1.077-3.5,1.077l-.09.179h-.448l-.09-.179s-.718-1.077-4.037-1.077c-18.927-.269-37.5-4.485-52.387-11.841l-.269-.179.179-.269a17.861,17.861,0,0,0,1.435-3.409.754.754,0,0,0-.628-.9c-.179,0-.359-.09-.448,0a.953.953,0,0,1,.09.718.908.908,0,1,1-.538-1.166h0a1.793,1.793,0,0,1,1.166-.179,1.421,1.421,0,0,1,1.076,1.615,25.217,25.217,0,0,1-1.346,3.319c14.711,7.176,33.1,11.3,51.849,11.661,2.691,0,3.857.718,4.306,1.166.359-.359,1.346-.987,3.768-1.166,20.183-.807,38.3-4.844,52.3-11.661a12.769,12.769,0,0,1-1.346-3.319,1.352,1.352,0,0,1,1.076-1.615,1.374,1.374,0,0,1,1.166.179h0C541.319,463.279,541.857,463.548,541.947,464Zm-14.891.09H485.434a2.338,2.338,0,0,0-2.332,1.435,2.477,2.477,0,0,0-2.422-1.435H439.057l1.166.448a102.478,102.478,0,0,0,17.044,4.575c1.7.359,2.512-.18,2.871-.628a1.626,1.626,0,0,0,.09-1.794v-.09l7.8,1.166c-.09,0-.09.09-.18.179a1.559,1.559,0,0,0-.538.987c0,.987.718,1.7,2.063,1.974A73.112,73.112,0,0,0,483.1,472.16a71.813,71.813,0,0,0,13.545-1.256c1.346-.269,2.153-1.076,2.063-1.974a1.239,1.239,0,0,0-.538-.987l-.179-.179,7.8-1.166v.09a1.832,1.832,0,0,0,.09,1.794c.359.448,1.166.987,2.87.628a93.054,93.054,0,0,0,17.044-4.575Zm-67.726,2.422h.179a.7.7,0,0,1,.359.359.953.953,0,0,1,.09.718c-.538-.09-1.077-.179-1.525-.269A.855.855,0,0,1,459.33,466.508Zm9.6,1.435a.947.947,0,0,1,.449.179c.179.179.179.448.179.807h-.179c-.538-.09-.987-.09-1.525-.179a1.2,1.2,0,0,1,.269-.448A1.459,1.459,0,0,1,468.928,467.943Zm27.629,2.512a70.8,70.8,0,0,1-13.456,1.256,72.094,72.094,0,0,1-13.635-1.256c-.987-.269-1.615-.718-1.7-1.256.449.09.987.09,1.435.179a116.6,116.6,0,0,0,13.9.987,131.988,131.988,0,0,0,13.366-.9c.538-.09,1.076-.09,1.615-.179C498.172,469.827,497.544,470.276,496.557,470.455Zm1.7-1.7c-.538.09-1.166.09-1.7.179h0a1.125,1.125,0,0,1,.09-.807.579.579,0,0,1,.448-.269,1.956,1.956,0,0,1,.9.359C498.172,468.482,498.261,468.571,498.261,468.751Zm7.984-1.884c.09-.179.269-.359.359-.359h.179a1.225,1.225,0,0,1,.9.987c-.538.09-.987.179-1.525.269A2.765,2.765,0,0,1,506.245,466.867Zm2.512,1.7c-1.166.179-1.974.09-2.332-.448,2.422-.359,4.844-.9,7.176-1.346a.816.816,0,0,0,.718.359.74.74,0,1,0-.359-1.435.77.77,0,0,0-.538.628c-1.7.359-3.5.718-5.2,1.076-.269-.9-.9-1.346-1.346-1.346v0H506.6l-9.509,1.435h0a1.213,1.213,0,0,0-.807.448,1.391,1.391,0,0,0-.179,1.076,121.564,121.564,0,0,1-12.828.9,126.748,126.748,0,0,1-13.187-.9,1.228,1.228,0,0,0-.269-1.166.926.926,0,0,0-.718-.359h0L459.6,466.06h-.269a1.426,1.426,0,0,0-1.435,1.346c-2.243-.359-4.4-.9-6.548-1.346a.77.77,0,0,0-.538-.628.74.74,0,1,0-.359,1.435.9.9,0,0,0,.807-.269c2.781.628,5.651,1.256,8.522,1.7h0c-.359.538-1.256.718-2.422.448a99.929,99.929,0,0,1-15.7-4.037h39.021a2.185,2.185,0,0,1,2.243,1.884,2.6,2.6,0,0,1-2.063,2.422,1.179,1.179,0,0,1-.807-.269.854.854,0,0,0,.718-.9.772.772,0,0,0-.718-.718c-.9,0-.987.987-.987.987a1.075,1.075,0,0,0-.718-.269.945.945,0,0,0-.718.448,5.239,5.239,0,0,1,.9-.09c.718,0,.987,1.166,2.332,1.166a2.429,2.429,0,0,0,2.332-1.974,2.517,2.517,0,0,0,2.332,1.974c1.346,0,1.7-1.166,2.332-1.166a5.239,5.239,0,0,1,.9.09.945.945,0,0,0-.718-.448,1.075,1.075,0,0,0-.718.269s-.09-.987-.987-.987a.708.708,0,0,0-.718.718.944.944,0,0,0,.718.9,1.179,1.179,0,0,1-.807.269,2.63,2.63,0,0,1-2.063-2.512,1.935,1.935,0,0,1,2.063-1.884h39.021A121.152,121.152,0,0,1,508.757,468.571Zm-71.225-5.382-2.153-.807,2.153.718,5.651-.09,2.781-.09h73.378l2.781.09,5.651.09,1.525-1.166-1.525,1.256h0l-5.651.09-2.781.09H445.964l-2.781-.09-5.651-.09Zm83.6-33.908c0,1.525-1.256,1.884-1.256,2.691a7.154,7.154,0,0,0,.09.987,1,1,0,0,1-.538-.807,1.04,1.04,0,0,1,.359-.807s-1.076-.09-1.076-1.076a.8.8,0,0,1,.807-.807,1.029,1.029,0,0,1,.987.807,1.126,1.126,0,0,0,.359-.9c0-.628-.538-2.512-3.05-2.332H448.027a2.322,2.322,0,0,0-2.6,2.332,1.126,1.126,0,0,0,.359.9,1.029,1.029,0,0,1,.987-.807.867.867,0,0,1,.807.807c0,.987-1.076,1.076-1.076,1.076a1.3,1.3,0,0,1,.359.807,1,1,0,0,1-.538.807,7.147,7.147,0,0,0,.09-.987c0-.718-1.256-1.076-1.256-2.691a2.632,2.632,0,0,1,2.332-2.6h70.328a10.423,10.423,0,0,1,1.166.09A2.539,2.539,0,0,1,521.136,429.281Zm-36.151,55.257a1.076,1.076,0,1,1-1.076-1.076A1.036,1.036,0,0,1,484.985,484.539Zm-24.13-90.152,1.884-.269,1.884-.269a13.38,13.38,0,0,1,1.884-.179l.9-.09.9-.09c.628-.09,1.256-.09,1.884-.179.628,0,1.256-.09,1.884-.09s1.256-.09,1.884-.09l1.884-.09,1.884-.09a13.245,13.245,0,0,0,1.884-.09h.449a3.884,3.884,0,0,0,.449-.09c.269-.09.628-.09.9-.179a10.555,10.555,0,0,0,1.794-.628c.179-.09.269-.179.449-.269.09-.09.179-.09.179-.179l.179-.18.179-.179.269.269.09.09a.088.088,0,0,0,.09.09c0,.09.09.09.179.09l.269.269a2.251,2.251,0,0,0,.628.359,7.881,7.881,0,0,0,1.346.448c.269,0,.449.09.718.09h.718l1.345.09c.9,0,1.794.09,2.691.18l2.691.179c.9.09,1.794.09,2.691.179l1.346.09,1.346.09c.449,0,.9.09,1.346.09a6.933,6.933,0,0,1,1.346.179l.628.09c.179,0,.449.09.628.09.448.09.9.09,1.346.179l-1.346-.269a6.932,6.932,0,0,0-1.346-.179c-.448-.09-.9-.09-1.346-.179s-.9-.09-1.346-.179l-2.691-.269-2.691-.269c-.449,0-.9-.09-1.346-.09l-1.346-.09c-.9-.09-1.794-.179-2.691-.179-.448,0-.9-.09-1.346-.09h-.628c-.179,0-.449-.09-.628-.09a4.44,4.44,0,0,1-1.166-.359,1.873,1.873,0,0,1-.538-.359c-.09-.09-.179-.09-.269-.179l-.09-.09-.09-.09h0l-.269-.269.09-.09,1.346-1.346.179-.179-.179-.179-1.615-1.7-.179-.269-.179.269-1.615,1.7-.179.179.179.179,1.346,1.346c-.09,0-.09.09-.179.09l-.179.179c-.09,0-.09.09-.179.09-.09.09-.269.179-.359.269a9.567,9.567,0,0,1-1.7.628,3.188,3.188,0,0,1-.9.179c-.179,0-.269.09-.448.09H479.6c-1.256.09-2.512.09-3.678.179l-1.884.09c-.628,0-1.256.09-1.884.09-.628.09-1.256.09-1.884.179s-1.256.09-1.884.179l-.9.09-.9.09-1.884.269-1.884.269c-.628.09-1.256.269-1.794.359l-1.794.359-1.794.448,1.794-.359Zm22.067-5.113,1.166-1.256,1.166,1.256-1.077,1.076-.09.09Zm-3.319,3.14Zm27.539,25.207a1.955,1.955,0,0,0-.448-.269l1.076-2.422h1.076l1.166,2.691c-.269.09-.448.269-.718.359l-.628-1.525-.359-.807-.359.807-.538,1.346h0C507.232,417.709,507.142,417.709,507.142,417.62Zm-35.523-1.7h-2.691v-.807h7v.807h-4.306Zm69.52,4.575c-.269-.09-.628-.179-.9-.269v-5.293h.987v5.113A.976.976,0,0,0,541.14,420.49Zm-43.327,1.166c0,2.063-2.243,2.243-3.229,2.243h-1.7v-.718h1.7c1.435,0,2.243-.628,2.243-1.7,0-.538-.269-1.7-2.332-1.7h-1.615v-.718h1.256a4.9,4.9,0,0,1,2.153.359A2.328,2.328,0,0,1,497.813,421.656Zm6.1,2.243,2.243-5.113a1.874,1.874,0,0,1,.538.359l.09.09-1.973,4.754h-.9Zm-62.165-.269v.359a4.568,4.568,0,0,1-3.857-3.768c.359,0,.628-.09.987-.09a3.755,3.755,0,0,0,2.781,3.05A.809.809,0,0,1,441.748,423.63Zm91.857-8.612h.987v5.113c-.359,0-.628.09-.987.09Zm-42.161,2.153v6.818h-.9v-6.818ZM455.832,423.9h-.9v-6.907l.9.09V423.9Zm41.443-6.817a2.307,2.307,0,0,1-.448,1.256,1.689,1.689,0,0,0-.718-.179,1.447,1.447,0,0,0,.269-.807c0-.807-.538-1.615-2.063-1.615h-3.678v-.718h3.947a3.2,3.2,0,0,1,2.243.718A2.2,2.2,0,0,1,497.275,417.082Zm-51.221,3.05h.987a4.477,4.477,0,0,1-3.947,3.857v-.807A3.521,3.521,0,0,0,446.054,420.131Zm93.83,1.525c.359.09.628.179.9.269a3.482,3.482,0,0,1-3.5,2.153,3.4,3.4,0,0,1-3.588-2.422c.269,0,.628-.09.987-.09a2.574,2.574,0,0,0,2.6,1.7A2.439,2.439,0,0,0,539.884,421.656ZM472.965,423.9h-.987v-6.548h.987Zm48.619-4.665,4.037-4.216H526.7l-5.113,5.2Zm-1.076,4.665h-.987v-8.97h.987Zm3.319-4.126,3.229,4.216H525.98l-2.691-3.588Zm-14.981,1.076.269.718h-1.884l.269-.718Zm-84.86-3.768.9.09v6.818h-.9Zm36.24,4.4,1.7,2.422h-1.076l-1.615-2.243Zm-34.895-5.651-1.346-.09v-.718H427.4c1.973,0,3.229,1.076,3.229,2.871,0,2.153-1.884,2.87-3.5,2.87h-.807v-.807h.9a2.152,2.152,0,0,0,2.422-2.153c0-1.256-.9-2.063-2.422-2.063h-1.884Zm13.635,2.871a4.369,4.369,0,0,0-1.076.09,4.572,4.572,0,0,1,4.037-3.857v.807A3.426,3.426,0,0,0,438.967,418.7Zm70.866.628c.269-.09.449-.269.718-.359L512.7,423.9h-.987Zm-47.9-1.615a2.478,2.478,0,0,1-1.973,2.512l-1.7.269h-.987v-.718H458.7c1.435,0,2.332-.807,2.332-1.974,0-1.256-.9-1.973-2.332-1.973H456.19l-1.346-.09v-.718H458.7C460.765,415.018,461.931,416.095,461.931,417.709Zm-18.569-1.884v-.807a4.478,4.478,0,0,1,3.678,3.678h-1.076A3.459,3.459,0,0,0,443.363,415.826Zm-18.12,9.06h.538v-3.05h1.256c2.6,0,4.4-1.525,4.4-3.857,0-2.243-1.7-3.768-4.216-3.768H423v10.675h2.243Zm.628-5.831v-2.332h1.346c.987,0,1.525.359,1.525,1.166,0,.718-.538,1.166-1.525,1.166h-1.346Zm-2.243-4.4H427.4c2.243,0,3.678,1.256,3.678,3.229,0,2.153-1.7,3.229-3.857,3.229H426.05v-1.525h1.256c1.256,0,2.063-.718,2.063-1.7,0-1.166-.807-1.7-2.063-1.7h-1.974l-1.7-.09V414.66Zm0,1.973,1.7.09v7.535h-1.7Zm39.29,1.076c0-2.243-1.615-3.588-4.126-3.588h-4.844V424.8h2.781v-3.319h1.166l.179.179,2.063,2.871.179.269h3.319l-.628-.9-2.153-3.05A3.213,3.213,0,0,0,462.918,417.709Zm-6.728,2.063v4.575h-1.7v-7.715l1.7.09Zm.538-.9v-2.063h1.884c1.435,0,1.435.718,1.435.987,0,.987-.987,1.076-1.435,1.076h-1.884Zm5.92,5.382h-1.973l-2.063-2.871,1.794-.269Zm-2.6-3.588-1.794.269h-1.345v-1.525H458.7c1.166,0,1.974-.628,1.974-1.615s-.718-1.615-1.974-1.615H456.19l-1.7-.09V414.66h4.306c2.243,0,3.588,1.166,3.588,3.05A3,3,0,0,1,460.048,420.67Zm79.747-6.638h-.538v6.728l-.09.269a1.653,1.653,0,0,1-1.7,1.256,1.675,1.675,0,0,1-1.794-1.346l-.09-.269v-6.548H532.8v6.728h0l.09.269v.179h0v.179a4.275,4.275,0,0,0,4.575,3.678c2.332,0,3.947-1.076,4.485-3.14h.09l.09-.359v-.09h0V421.3a4.025,4.025,0,0,0,.09-.987V414.3h-2.422Zm-6.548,6.19V414.66h1.7v5.831a10.981,10.981,0,0,0-1.7.179Zm4.037,4.216a3.7,3.7,0,0,1-4.037-3.14c.538-.09,1.166-.09,1.7-.179a2.45,2.45,0,0,0,4.665.179,5.7,5.7,0,0,1,1.615.538C540.781,423.54,539.346,424.437,537.283,424.437Zm4.216-4.306a3.677,3.677,0,0,1-.09.987,11.363,11.363,0,0,0-1.615-.538v-5.92h1.7v5.472Zm-12.559-6.1h-3.678l-.179.179-3.588,3.857v-3.947h-2.781v10.764h2.781v-3.14l.179-.179.718-.718,2.871,3.857.179.269h3.5l-.718-.9-3.947-5.113h0l3.678-3.768Zm-8.073,10.316h-1.7V414.66h1.7Zm6.907,0h-2.063l-3.05-3.947,1.166-1.166Zm-6.548-3.229v-2.063l4.216-4.485H527.5ZM436.9,419.683v.269a5.3,5.3,0,0,0,5.2,5.023h.718a5.389,5.389,0,0,0,5.2-5.2v-.179h0v-.448h0v-.179a5.467,5.467,0,0,0-4.934-5.023h-.807a5.363,5.363,0,0,0-5.382,5.2v.269h0v.269Zm.538.179c.538-.09,1.166-.09,1.7-.179h.09a3.273,3.273,0,0,0,2.87,3.14,8.21,8.21,0,0,0,.09,1.525A4.869,4.869,0,0,1,437.442,419.862Zm5.382,4.575c-.09-.538,0-.987-.09-1.525a3.147,3.147,0,0,0,2.96-3.14h1.794A5.015,5.015,0,0,1,442.824,424.437ZM443,414.57a4.975,4.975,0,0,1,4.485,4.485,12.02,12.02,0,0,1-1.794-.09A3.333,3.333,0,0,0,443,416.095Zm-.359,2.063h.269a2.763,2.763,0,0,1,2.243,2.332v.718a2.636,2.636,0,0,1-2.422,2.6H442.2a2.779,2.779,0,0,1-2.332-2.6v-.538a2.546,2.546,0,0,1,2.512-2.422Zm-.359-2.063v.269a5.923,5.923,0,0,1-.09,1.256,3.268,3.268,0,0,0-3.05,2.96,12.162,12.162,0,0,0-1.794.179h0A4.99,4.99,0,0,1,442.286,414.57Zm55.078.538a4.2,4.2,0,0,0-2.96-.987H489.56v10.765h4.934c2.6,0,4.126-1.256,4.126-3.229a3.063,3.063,0,0,0-1.256-2.6,2.8,2.8,0,0,0,.718-1.884A2.366,2.366,0,0,0,497.364,415.108Zm-7.266,9.24v-7.535h1.7v7.535Zm2.243-7.535h0l1.884-.09c.538,0,1.166.09,1.166.628a.929.929,0,0,1-.448.628l-.09.09h-2.422Zm0,5.382V420.67H494.4c1.435,0,1.435.538,1.435.718s0,.807-1.256.807h-2.243Zm5.831-.538c0,1.7-1.435,2.691-3.588,2.691H492.52v-1.525h2.153c1.166,0,1.884-.448,1.884-1.346,0-.807-.628-1.256-1.974-1.256H492.61v-1.435h1.615a5.336,5.336,0,0,1,2.243.359A2.629,2.629,0,0,1,498.172,421.656Zm-1.256-2.871a13.183,13.183,0,0,0-1.525-.359,1.879,1.879,0,0,0,.538-1.076c0-.718-.628-1.256-1.7-1.256H490.1V414.57H494.4a3.2,3.2,0,0,1,2.512.9,2.506,2.506,0,0,1,0,3.319Zm5.831,5.2-.359.807h2.96l.179-.359.807-1.973H510.1l.807,1.973.179.359h3.05l-.359-.807-2.512-5.831-.09-.09h0l-.269-.538-1.435-3.229-.179-.359h-2.063l-.179.359-1.346,2.96-.269.628h0v.09Zm3.947-2.063.628-1.525h1.794l.628,1.525Zm1.256-3.14.09-.179.179-.538.269.628.09.09h0l.179.538.179.538h-1.525l.269-.628.269-.449Zm5.382,5.472h-1.794l-2.153-5.113c.449-.269.987-.449,1.435-.718ZM507.5,414.57h1.525l1.435,3.229c-.448.179-.987.448-1.435.628l-.807-1.884-.718,1.794a2.729,2.729,0,0,1-.628-.449,1.8,1.8,0,0,0-.718-.359Zm-1.615,3.678a4.921,4.921,0,0,1,1.346.718l-2.243,5.2h-1.7Zm-34.805,6.01v.538h2.781v-7.984h2.96v-2.6h-8.881v2.6h2.96v7.445Zm2.243,0h-1.7V416.9h1.7Zm-4.754-7.984v-1.525h7.8v1.525h-7.8Zm-27.988-12.11a1.525,1.525,0,0,1,.09.628,1.275,1.275,0,0,1-.179.538,2.378,2.378,0,0,1-.448.538,5,5,0,0,1-.718.448l-1.525.628h-.09l.179-.987h.359c.09,0,.179-.09.269-.09l.538-.179a1.379,1.379,0,0,0,.538-.359.593.593,0,0,0,.09-.538c0-.09-.09-.179-.179-.269a.33.33,0,0,0-.269-.09h-.359c-.09,0-.269.09-.359.09l-1.884.718.987,2.6c0,.09.09.179.09.269.09.09.09.269.179.448a1.239,1.239,0,0,0,.269.359c.09.09.179.179.269.179v.09l-1.435.538v-.09c0-.09.09-.179,0-.359a.809.809,0,0,0-.09-.448c0-.179-.09-.269-.179-.449a.443.443,0,0,1-.09-.269l-.987-2.422a.313.313,0,0,0-.09-.179c0-.09-.09-.179-.09-.269-.09-.09-.09-.179-.179-.179-.09-.09-.179-.09-.269-.179v-.09l3.14-1.256a2.774,2.774,0,0,1,.718-.179,1.33,1.33,0,0,1,.628.09,1.878,1.878,0,0,1,.538.359A.516.516,0,0,1,440.582,404.164Zm5.023,1.615a4.731,4.731,0,0,0,1.076.269,7.04,7.04,0,0,0,1.256-.179,2.046,2.046,0,0,0,1.076-.538,2.315,2.315,0,0,0,.807-.807,3.316,3.316,0,0,0,.448-.987,2.672,2.672,0,0,0-.09-1.166,1.772,1.772,0,0,0-.538-.987,3.224,3.224,0,0,0-.9-.628,4.73,4.73,0,0,0-1.076-.269,3.27,3.27,0,0,0-1.256.179,2.048,2.048,0,0,0-1.076.538,2.316,2.316,0,0,0-.807.807,3.318,3.318,0,0,0-.448.987,2.672,2.672,0,0,0,.09,1.166,1.772,1.772,0,0,0,.538.987A5.434,5.434,0,0,0,445.605,405.779ZM445.157,403c0-.269.179-.448.269-.718l.538-.538a1.8,1.8,0,0,1,.718-.359,2.483,2.483,0,0,1,.807-.09,1.689,1.689,0,0,1,.718.179,1.608,1.608,0,0,1,.628.448,1.8,1.8,0,0,1,.359.718,2.482,2.482,0,0,1,.09.807c0,.269-.179.448-.269.718l-.538.538a1.8,1.8,0,0,1-.718.359,2.485,2.485,0,0,1-.807.09,1.689,1.689,0,0,1-.718-.179,1.61,1.61,0,0,1-.628-.448,1.8,1.8,0,0,1-.359-.718A.872.872,0,0,1,445.157,403Zm12.559-1.973h0l.538.538c.269.269.538.448.807.718a8.26,8.26,0,0,0,.718.448v.09c-.09.09-.179.09-.269.179a.33.33,0,0,1-.269.09c-.179,0-.359.09-.448,0-.179,0-.269-.09-.449-.09-.09-.09-.269-.179-.359-.269l-.359-.359-1.166-1.076-1.076.179v-.09l.359-.987h.628l.807-.179a.824.824,0,0,0,.538-.359.687.687,0,0,0-.269-.987,1.33,1.33,0,0,0-.628-.09l-2.243.449.538,2.691c0,.09.09.179.09.359s.09.269.09.448c.09.179.09.269.179.359s.09.179.179.269v.09l-1.525.359v-.09c.09-.09.09-.179.09-.359v-.448a.809.809,0,0,0-.09-.449c0-.179-.09-.269-.09-.359l-.538-2.512a.329.329,0,0,0-.09-.269c0-.09-.09-.179-.09-.269s-.09-.179-.09-.269l-.179-.179v-.09l3.409-.718a2.483,2.483,0,0,1,.807-.09,1.3,1.3,0,0,1,.628.179,1.96,1.96,0,0,1,.449.359,4.373,4.373,0,0,1,.269.628,1.468,1.468,0,0,1-.179,1.076A1.031,1.031,0,0,1,457.715,401.025Zm8.073-3.5-.9.09.359,2.781a.678.678,0,0,0,.09.359c0,.179.09.269.09.449s.09.269.179.448c.09.09.09.179.179.269v.09l-1.615.179v-.09c.09-.09.09-.179.09-.359v-1.256l-.359-2.781-.807.09a2.11,2.11,0,0,0-.718.179l-.538.269h-.09l.359-1.256h.628l3.678-.538.538-.179h.09l-.538,1.256h-.09c-.09-.09-.179-.179-.269-.179C466.147,397.526,466.058,397.526,465.789,397.526Zm10.047.179a1.525,1.525,0,0,0,.09-.628.987.987,0,0,0-.538-.9,3,3,0,0,0-1.345-.269l-3.588.269v.09l.179.179c0,.09.09.179.09.269a.329.329,0,0,0,.09.269v.269l.18,2.6v.807a.808.808,0,0,1-.09.449c0,.179-.09.269-.179.269v.09l3.768-.269a2.11,2.11,0,0,0,.718-.179l.538-.269a.9.9,0,0,0,.359-.449,1.526,1.526,0,0,0,.09-.628,1.447,1.447,0,0,0-.269-.807,1.609,1.609,0,0,0-.628-.449h0A1.88,1.88,0,0,0,475.835,397.706Zm-.538,2.063c0,.09-.09.179-.179.269s-.179.09-.269.179a.672.672,0,0,1-.448.09l-2.422.179-.269-3.5,2.243-.179h.359a.329.329,0,0,1,.269.09.193.193,0,0,1,.179.179.33.33,0,0,1,.09.269c0,.179,0,.359-.179.449a.758.758,0,0,1-.538.179l-.807.09h-.269a.329.329,0,0,1-.269-.09h-.09l-.538,1.076h.09a5.7,5.7,0,0,1,.628-.179l1.346-.09c.359,0,.628,0,.718.179a.542.542,0,0,1,.269.538A.329.329,0,0,1,475.3,399.769Zm5.92-3.319c0,.09-.09.179-.09.269l-1.166,2.6-.179.359c-.09.179-.179.269-.179.448-.09.179-.179.269-.269.449s-.179.269-.269.269v.09h1.525v-.09c0-.09-.09-.09-.09-.179V400.4c0-.09.09-.179.09-.269l.09-.269.09-.179h2.6l.09.179.09.269c0,.09.09.179.09.269v.269c0,.09,0,.179-.09.179v.09h1.525v-.09l-.269-.269c-.09-.179-.179-.269-.269-.449s-.179-.269-.269-.448l-.179-.359-1.346-2.87c-.09-.179-.09-.269-.179-.449v-.359h-1.7v.09c.09.09.09.09.09.179v.269C481.307,396.27,481.307,396.36,481.218,396.45Zm.9.179h0l1.076,2.153h-1.974Zm5.92,4.126,3.678-4.216H489.2a1.79,1.79,0,0,0-.807.179l-.09-.09.718-1.076h.09l.628.09,3.857.179v.09c-.09.09-.179.09-.269.179l-.269.269-.269.269-.179.269-2.781,3.229h2.063c.269,0,.538-.09.718-.09.269,0,.448-.09.628-.09l.09.09-.807,1.166-4.485-.448Zm10.5-3.588a.329.329,0,0,0-.09.269l-1.435,2.422-.179.269c-.09.179-.179.269-.269.449s-.179.269-.269.448l-.269.269v.09l1.525.179v-.09c0-.09-.09-.09,0-.18a.33.33,0,0,1,.09-.269c0-.09.09-.179.09-.269l.09-.179.09-.179,2.6.269.09.179.09.269c0,.09.09.179.09.269v.269c0,.09,0,.179-.09.179v.09l1.525.179v-.09c-.09-.09-.09-.179-.18-.359s-.09-.269-.179-.448-.09-.359-.179-.448l-.09-.359-.987-3.05a.808.808,0,0,1-.09-.448v-.359l-1.615-.179v.09a.278.278,0,0,1,.09.179.33.33,0,0,1-.09.269C498.62,396.988,498.53,397.078,498.53,397.167Zm.807.269h0l.807,2.332-1.974-.179Zm6.638.718v-.538c0-.09-.09-.179-.09-.269v-.09l3.409.628c.269.09.538.09.718.269a2.373,2.373,0,0,1,.538.448.775.775,0,0,1,.269.538.982.982,0,0,1,0,.718,1.291,1.291,0,0,1-.538.9,1.913,1.913,0,0,1-1.076.269h0l.359.718c.179.359.359.628.538.987a4.976,4.976,0,0,0,.538.718v.09c-.09,0-.179.09-.359.09h-.359a.685.685,0,0,1-.449-.179c-.09-.09-.269-.179-.359-.269s-.179-.269-.269-.359l-.179-.449-.628-1.346-1.076-.179v-.09l.718-.718h.09c.09.09.09.09.179.09a.33.33,0,0,1,.269.09l.807.179a.737.737,0,0,0,.628-.09.494.494,0,0,0,.269-.449,1.137,1.137,0,0,0-.09-.538.7.7,0,0,0-.628-.269l-2.243-.359-.538,2.781a.679.679,0,0,1-.09.359.809.809,0,0,1-.09.449v.448c0,.09,0,.269.09.269v.09l-1.525-.269v-.09c.09,0,.179-.09.179-.269.09-.09.09-.269.179-.449,0-.179.09-.269.09-.448s.09-.269.09-.359l.449-2.512C505.976,398.333,505.976,398.244,505.976,398.154Zm7.8,6.279c-.09-.179-.179-.269-.179-.359-.09-.09-.18-.269-.269-.359v-.09c.179-.09.269-.09.359-.179s.269-.179.359-.269h.09c.09.179.179.269.179.359.09.09.179.269.269.359v.09c-.179.09-.269.09-.359.179-.179.09-.269.179-.449.269Zm6.638-3.319c-.09.09-.09.179-.179.269s-.09.179-.179.179l-1.884,2.153-.269.269c-.09.09-.179.269-.359.359l-.359.359a.68.68,0,0,1-.359.18v.09l1.435.449v-.269c0-.09.09-.179.09-.269.09-.09.09-.18.179-.18l.179-.179.09-.18,2.512.718v.987c0,.09-.09.09-.09.179v.09l1.435.449v-.09c-.09-.09-.09-.179-.09-.359s-.09-.359-.09-.538-.09-.359-.09-.538l-.09-.359-.449-3.14v-.449a.33.33,0,0,1,.09-.269v-.09l-1.615-.449v.359C520.508,400.935,520.508,401.025,520.418,401.114Zm.628.718h0l.359,2.422-1.884-.538Zm4.4,5.741,4.844-2.781h0l-1.346-.449c-.359-.09-.718-.179-.987-.269a2.484,2.484,0,0,0-.807-.09v-.09l1.076-.807h.09l.538.269,3.588,1.435v.09c-.09,0-.179.09-.269.09-.09.09-.179.09-.359.179l-.359.179-.269.179-3.678,2.153h0l.718.269c.179.09.359.09.538.179.269.09.449.09.718.179s.449.09.718.179a1.752,1.752,0,0,0,.628.09v.09l-1.077.807-4.306-1.884Zm-30.41,43.147-.359-.359H486.69l-1.615-1.615-.269.269,1.346,1.346h-.538l-1.077-1.076-.269.269.9.9h-.538l-.628-.628-.269.269.359.359h-.538l-.09-.09-.09.09h-.628l12.11-12.917v-6.548l-.359-.359H473.144v6.548l.359.359h11.661l-12.02,12.917V457l.359.359h21.529Zm-21.529-.179,12.828-13.814H473.5V430.9h20.632V437L481.307,450.72h13.007v5.831H473.5Zm19.914-18.927H474.311v4.306h19.107Zm-5.831.718h.359v3.229h-.359Zm.807,0h.359v3.229h-.359Zm.718,0h.359v3.229h-.359Zm.718,0h.359v3.229h-.359Zm.718,3.229v-3.229h.359v3.229h-.359Zm.718-3.229h.359v3.229h-.359Zm.807,0h.359v3.229h-.359Zm.987,3.229h-.269v-3.229h.269Zm-17.941-3.229h.359v3.229h-.359Zm.718,0h.359v3.229h-.359Zm.718,0h.359v3.229h-.359Zm.718,0h.359v3.229h-.359Zm.807,0h.359v3.229h-.359Zm.718,0h.359v3.229H478.8Zm.718,0h.359v3.229h-.359Zm.718,0h.359v3.229h-.359Zm.718,0h.359v3.229h-.359Zm.807,0h.359v3.229h-.359Zm.718,0h.359v3.229h-.359Zm.718,0h.359v3.229h-.359Zm.718,0h.359v3.229h-.359Zm.807,0h.359v3.229h-.359Zm.718,0h.359v3.229h-.359Zm.718,0h.359v3.229h-.359Zm.718,0h.359v3.229h-.449v-3.229Zm-12.558,23.413H493.6v-4.306H474.311Zm.807-3.588h.359v3.229h-.359Zm.718,0h.359v3.229h-.359Zm.718,0h.359v3.229h-.359Zm.718,0h.359v3.229h-.359Zm.807,0h.359v3.229h-.359Zm.718,0h.359v3.229H478.8Zm.718,0h.359v3.229h-.359Zm.718,0h.359v3.229h-.359Zm.718,0h.448v3.229h-.359v-3.229Zm.807,0h.359v3.229h-.359Zm.718,0h.359v3.229h-.359Zm.718,0h.359v3.229h-.359Zm.718,0h.359v3.229h-.359Zm.807,0h.359v3.229h-.359Zm.718,0h.359v3.229h-.359Zm.718,0h.359v3.229h-.359Zm.718,0h.359v3.229h-.359Zm.718,0h.359v3.229h-.359Zm.807,0h.359v3.229h-.359Zm.718,0h.359v3.229h-.359Zm.718,0h.359v3.229h-.359Zm.718,0h.359v3.229h-.359Zm.718,0h.359v3.229h-.359Zm.807,0h.359v3.229h-.359Zm.718,0h.359v3.229h-.359Zm-12.469-1.435,13.007-13.994h-5.92L474.4,450.72Zm-4.216-.538.359-.449v.538H476.1Zm.718-.807.359-.449v1.346h-.359Zm.718.987h0v-1.794l.359-.448v2.153h-.359Zm.718,0V447.85l.359-.449v2.96Zm.718-3.319.359-.448v3.768h-.359Zm.807,3.319v-4.126l.359-.449v4.485h-.359Zm.718-4.934.359-.449v4.485l-.359.449Zm.718-.807.359-.448v4.485l-.359.449Zm.718-.807.359-.449v4.485l-.359.448Zm.807-.718.359-.449v4.485l-.359.448Zm.718-.807.359-.448v4.485l-.359.448Zm.718-.807.359-.449v4.485l-.359.449Zm.718,3.768v-4.485l.359-.448V444.8Zm.718-5.382.359-.449V443.9l-.359.449Zm.807-.718.359-.449v4.485l-.359.448Zm.718,3.678v-4.485l.359-.449v4.485h0l-.359.449Zm.718-5.292h0l.359-.09v4.216l-.359.448Zm.718-.09h.359v3.409h0l-.359.448Zm.718,0h.359v2.6l-.359.449Zm.807,2.243v-2.243h.359v1.794l-.359.448Zm.718-.807v-1.435h.359v1.076Zm.718-.807v-.628h.359v.269Zm53.194-.9a8.529,8.529,0,0,0-1.346-1.794c.09.269.269.538.359.807Zm-.628.449,1.346,1.345-.269-.807-1.256-1.256C544.01,437.175,544.01,437.355,544.1,437.624Zm.09,1.166,1.525,1.525c0-.179-.09-.448-.09-.628l-1.435-1.435Q544.19,438.521,544.19,438.79Zm.09.538v.448L545.8,441.3h0v-.538l-1.525-1.435Zm1.525,2.512-1.615-1.615a.809.809,0,0,1-.09.448l1.615,1.615A3.9,3.9,0,0,0,545.8,441.84Zm-1.884-.269,1.615,1.615c0-.179.09-.269.09-.449l-1.615-1.615A.672.672,0,0,1,543.921,441.571Zm-.18.807,1.615,1.615c0-.09.09-.269.09-.359l-1.615-1.615C543.831,442.109,543.741,442.2,543.741,442.378Zm-.359.718,1.7,1.7c.09-.09.09-.269.18-.359l-1.7-1.7A.68.68,0,0,1,543.382,443.1Zm-.359.628,1.7,1.7c.09-.09.09-.179.179-.359l-1.7-1.7A.466.466,0,0,1,543.024,443.724Zm-1.794,2.332,1.7,1.7.269-.269-1.7-1.7Zm-.538.449,1.7,1.7c.09-.09.179-.179.269-.179l-1.7-1.7C540.871,446.325,540.781,446.415,540.691,446.5Zm-.448.269.448.807.987.987c.09-.09.179-.09.269-.179l-1.7-1.7C540.332,446.684,540.332,446.773,540.243,446.773Zm2.6,3.947-.718-1.166-.718-.718.718,1.166Zm1.435,2.422-.718-1.166-.718-.718.718,1.166Zm1.346,2.422-.718-1.166-.718-.718.718,1.166Zm.628,1.525.09.179.718.718-.718-1.166-.718-.718Zm1.525,2.153-1.435-1.435H545.8l1.525,1.525h.449Zm-2.96-1.435,1.525,1.525h.538l-1.525-1.525Zm-1.076,0,1.525,1.525h.538l-1.525-1.525Zm-.987,0,1.525,1.525h.538l-1.525-1.525Zm-1.077,0,1.525,1.525h.538l-1.525-1.525Zm-.987,0,1.525,1.525h.538l-1.525-1.525Zm-.987-.09,1.525,1.525h.538l-1.525-1.525Zm-1.076,0,1.525,1.525h.449l-1.525-1.525Zm-46.377-13.186-1.7-1.7-.269.269,1.7,1.7Zm4.754-11.661-1.525-1.525v.448l1.525,1.525Zm0,.987-1.525-1.525v.538l1.525,1.525Zm0,1.077-1.525-1.525v.538l1.525,1.525Zm0,.987-1.525-1.525v.538l1.525,1.525Zm0,1.076-1.525-1.525v.538l1.525,1.525Zm0,.987-1.525-1.525V437l1.525,1.525Zm0,1.525v-.449l-1.525-1.525v.179l-.09.179v.09l1.615,1.525Zm-.538.538.269-.269-1.7-1.7-.269.269Zm-.269.269-1.7-1.7-.269.269,1.7,1.7Zm-.538.538-1.7-1.7-.269.269,1.7,1.7Zm-.448.538-1.7-1.7-.269.269,1.7,1.7Zm-.538.538-1.7-1.7-.269.269,1.7,1.7Zm-.448.538-1.7-1.7-.269.269,1.7,1.7Zm-.538.538-1.7-1.7-.269.269,1.7,1.7Zm-.448.448-1.7-1.7-.269.269,1.7,1.7Zm-.538.538-1.7-1.7-.269.269,1.7,1.7Zm-.987,1.076-1.7-1.7-.269.269,1.7,1.7Zm-.448.538-1.7-1.7-.269.269,1.7,1.7Zm-.538.538-1.7-1.7-.269.269,1.7,1.7Zm-.538.538-1.7-1.7-.269.269,1.7,1.7Zm-.448.538-1.7-1.7-.269.269,1.7,1.7Zm-.538.538-1.7-1.7-.269.269,1.7,1.7Zm-.448.538-1.7-1.7-.269.269,1.7,1.7Zm-.538.538-1.7-1.7-.269.269,1.7,1.7Zm-.448.538-1.7-1.7-.269.269,1.7,1.7Zm-2.422-.987,1.7,1.7.269-.269-1.7-1.7Zm7.087,9.329,1.525,1.525h.538l-1.525-1.525Zm-1.076,0,1.525,1.525h.538l-1.525-1.525Zm-.987,0,1.525,1.525h.538l-1.525-1.525Zm-.987,0,1.525,1.525h.538l-1.525-1.525Zm-1.076,0,1.525,1.525h.538l-1.525-1.525Zm-.987,0,1.525,1.525h.538l-1.525-1.525Zm-.987,0,1.525,1.525h.538l-1.525-1.525Zm-1.076,0,1.525,1.525h.538l-1.525-1.525Zm-.987,0,1.525,1.525h.538l-1.525-1.525Zm-1.076,0,1.525,1.525h.538l-1.525-1.525Zm-.987,0,1.525,1.525h.538l-1.525-1.525Zm-.987,0,1.525,1.525h.538l-1.525-1.525Zm-1.076,0,1.525,1.525h.538l-1.525-1.525Zm50.952-9.419,1.525,1.525h.538l-1.525-1.525Zm-.269.718,1.525,1.525V450l-1.525-1.525Zm0,1.076,1.525,1.525v-.538l-1.525-1.525Zm0,.987,1.525,1.525v-.538l-1.525-1.525Zm0,.987,1.525,1.525v-.538l-1.525-1.525Zm0,1.076,1.525,1.525v-.538l-1.525-1.525Zm0,.987,1.525,1.525v-.449l-1.525-1.525Zm0,1.076,1.525,1.525v-.538l-1.525-1.525Zm0,.987,1.525,1.525v-.538l-1.525-1.525Zm0,1.076,1.525,1.525v-.538l-1.525-1.525Zm0,.449h-.449l1.525,1.525h.448l-1.525-1.525Zm-1.525,0,1.525,1.525h.538l-1.525-1.525Zm-.987,0,1.525,1.525h.538l-1.525-1.525Zm-1.076,0,1.525,1.525h.538l-1.525-1.525Zm-.987,0,1.525,1.525h.538l-1.525-1.525Zm-1.076,0,1.525,1.525h.538l-1.525-1.525Zm-.987,0,1.525,1.525h.538l-1.525-1.525Zm18.479-13.366,1.7,1.7c.09-.09.09-.179.179-.269l-1.7-1.7C542.844,444.172,542.754,444.262,542.665,444.351Zm-.449.628,1.7,1.7c.09-.09.179-.179.179-.269l-1.7-1.7C542.4,444.8,542.306,444.89,542.216,444.979Zm-7.714-6.907,1.435,1.435h.538l-1.435-1.435Zm7.266,7.445,1.7,1.7.269-.269-1.7-1.7Zm-8.342-7.445,1.435,1.435h.538l-1.435-1.435Zm-.987,0,1.435,1.435h.538l-1.435-1.435Zm-1.076,0,1.435,1.435h.538l-1.435-1.435Zm-.448.538,1.435,1.435v-.538l-1.435-1.435Zm1.166,9.688.807.807-.449-.807Zm-11.392-3.409,1.525,1.525v-.538l-1.525-1.525Zm0,.987,1.525,1.525v-.538l-1.525-1.525Zm-11.751-7.894,1.7,1.7c.09-.09.179-.179.269-.179l-1.7-1.7A1.108,1.108,0,0,1,508.936,437.982Zm-.538.359,1.7,1.7.269-.269-1.7-1.7Q508.533,438.341,508.4,438.341Zm-.628.538,1.794,1.794.269-.269-1.794-1.794Zm-.448.449,1.794,1.794.269-.269-1.794-1.794Q507.321,439.193,507.321,439.328Zm-.448.448c0,.09-.09.09,0,0l1.794,1.884c.09-.09.179-.179.179-.269l-1.794-1.794C506.963,439.687,506.963,439.777,506.873,439.777Zm-.448.718,1.794,1.794c.09-.09.09-.179.179-.269l-1.794-1.794C506.514,440.315,506.424,440.4,506.424,440.494Zm-.359.718,1.794,1.794c.09-.09.09-.179.179-.359l-1.794-1.794A.466.466,0,0,0,506.066,441.212Zm-.269.718,1.794,1.794c0-.09.09-.269.09-.359l-1.794-1.794C505.886,441.66,505.8,441.84,505.8,441.929Zm-.09.9h0l1.7,1.7a.975.975,0,0,1,.09-.448l-1.7-1.7A.975.975,0,0,0,505.707,442.826Zm0,1.076,1.615,1.615v-.538l-1.615-1.615Zm0,1.076,1.615,1.615v-.538l-1.615-1.615Zm0,.987,1.615,1.615v-.448l-1.615-1.615Zm0,.987,1.615,1.615v-.538l-1.615-1.615Zm0,1.076,1.615,1.615v-.538l-1.615-1.615Zm0,.987,1.615,1.615v-.538l-1.615-1.615Zm0,1.076,1.615,1.615v-.538l-1.615-1.615Zm0,.987,1.615,1.615v-.538l-1.615-1.615Zm0,.987,1.615,1.615v-.538l-1.615-1.615Zm0,1.076,1.615,1.615v-.538l-1.615-1.615Zm0,.987,1.615,1.615v-.538l-1.615-1.615Zm0,1.076,1.615,1.615v-.538l-1.615-1.615Zm0,.987,1.615,1.615v-.538l-1.615-1.615Zm0,1.076,1.615,1.615v-.538l-1.615-1.615Zm0,.449h-.448l1.525,1.525h.538l-1.615-1.525Zm-1.525,0,1.525,1.525h.538l-1.525-1.525Zm-.987,0,1.525,1.525h.538l-1.525-1.525Zm-1.077,0,1.525,1.525h.538l-1.525-1.525Zm-.987,0,1.525,1.525h.538l-1.525-1.525Zm-.987,0,1.525,1.525h.538l-1.525-1.525Zm-1.076,0,1.525,1.525h.448l-1.525-1.525Zm21.08-19.466-1.346-1.884-.449-.449a7.749,7.749,0,0,1,.9,1.435Zm-.09.9,1.256,1.256a2.8,2.8,0,0,0-.448-.9l-1.166-1.166C519.79,438.61,519.97,438.88,520.059,439.149Zm.359,1.435,1.346,1.346a2.112,2.112,0,0,1-.179-.718l-1.346-1.346A2.109,2.109,0,0,1,520.418,440.584Zm.18,1.166,1.435,1.435c0-.18-.09-.449-.09-.628l-1.435-1.435A1.752,1.752,0,0,1,520.6,441.75Zm.09,1.076,1.525,1.525v-.538l-1.435-1.435A.672.672,0,0,0,520.687,442.826Zm0,.538v.538l1.525,1.525v-.449h0Zm0,3.588,1.525,1.525v-.538l-1.525-1.525Zm0,.987,1.525,1.525v-.538l-1.525-1.525Zm0,1.076,1.525,1.525V450l-1.525-1.525Zm0,.987,1.525,1.525v-.538l-1.525-1.525Zm0,1.076,1.525,1.525v-.538l-1.525-1.525Zm0,.987,1.525,1.525v-.538l-1.525-1.525Zm0,.987,1.525,1.525v-.538l-1.525-1.525Zm0,1.076,1.525,1.525v-.538l-1.525-1.525Zm0,.987,1.525,1.525V456.1l-1.525-1.525Zm0,1.076,1.525,1.525v-.538l-1.525-1.525Zm0,.987,1.525,1.525v-.538l-1.525-1.525Zm0,.538h-.448l1.525,1.525h.359v-.09l-1.435-1.435Zm-1.525,0,1.525,1.525h.538l-1.525-1.525Zm-.987,0,1.525,1.525h.538l-1.525-1.525Zm-.987,0,1.525,1.525h.538l-1.525-1.525Zm-1.076,0,1.525,1.525h.538l-1.525-1.525Zm-.987,0,1.525,1.525h.538l-1.525-1.525Zm-1.076,0,1.525,1.525h.538l-1.525-1.525ZM444.8,437.534l-.538-1.076-1.166-1.166c.09.269.269.538.359.807Zm-.987,0,1.615,1.615c-.09-.269-.09-.449-.179-.718l-1.525-1.525A1.331,1.331,0,0,0,443.811,437.534Zm.09,1.166,1.7,1.7a1.137,1.137,0,0,0-.09-.538l-1.615-1.615Zm-.09.987,1.7,1.7v-.448h0l-1.7-1.7A.4.4,0,0,1,443.811,439.687Zm1.7,2.153-1.7-1.7c0,.179-.09.269-.09.449l1.794,1.794Zm-1.973-.449,1.794,1.794c0-.09.09-.269.09-.359l-1.794-1.794C443.632,441.122,443.542,441.212,443.542,441.391Zm-.269.718,1.794,1.794c.09-.09.09-.269.179-.359l-1.794-1.794C443.363,441.929,443.273,442.019,443.273,442.109Zm-.269.538a5.757,5.757,0,0,1,.9,1.166l.718.718c.09-.09.09-.269.179-.359L443,442.378C443.094,442.557,443,442.647,443,442.647Zm1.973,3.229,1.435,1.435c-.179-.448-.449-.807-.628-1.166l-1.076-1.077A2.852,2.852,0,0,0,444.977,445.876Zm.359,1.435,1.615,1.615c-.09-.269-.09-.448-.179-.718l-1.525-1.525A1.75,1.75,0,0,0,445.336,447.312Zm.09,1.076,1.7,1.7a1.138,1.138,0,0,0-.09-.538l-1.615-1.615Zm0,.538v.449l1.7,1.7v-.449Zm-.09,1.435,1.7,1.7a.809.809,0,0,1,.09-.449l-1.7-1.7A.809.809,0,0,0,445.336,450.362Zm-.179.807,1.794,1.794c0-.179.09-.269.09-.448l-1.794-1.794A.976.976,0,0,0,445.157,451.169Zm-.269.807,1.794,1.794a.54.54,0,0,0,.09-.359l-1.794-1.794C444.977,451.707,444.888,451.8,444.888,451.976Zm-.359.718,1.794,1.794c.09-.09.09-.269.179-.359l-1.794-1.794C444.708,452.425,444.619,452.515,444.529,452.694Zm-.359.628,1.794,1.794c.09-.09.09-.179.179-.359l-1.794-1.794A.466.466,0,0,1,444.17,453.322Zm-.359.628,1.794,1.794c.09-.09.179-.179.179-.269l-1.794-1.794C443.991,453.77,443.9,453.86,443.811,453.95Zm-.448.628,1.794,1.794.269-.269-1.794-1.794C443.542,454.309,443.452,454.488,443.363,454.578Zm-.449.538,1.794,1.794.269-.269-1.794-1.794C443,454.936,443,455.026,442.914,455.116Zm-.538.448,1.794,1.794.269-.269-1.794-1.794Zm-.628.448,1.794,1.794c.09-.09.18-.179.269-.179l-1.794-1.794C441.927,455.923,441.838,455.923,441.748,456.013Zm-.538.449,1.7,1.7c.09-.09.179-.09.359-.179l-1.7-1.7A.466.466,0,0,0,441.21,456.461Zm-.718.359,1.7,1.7c.09-.09.269-.09.359-.179l-1.7-1.7C440.761,456.731,440.582,456.731,440.492,456.82Zm-.718.269,1.7,1.7a.68.68,0,0,0,.359-.179l-1.7-1.7A.466.466,0,0,1,439.775,457.089Zm-.718.269,1.7,1.7c.09,0,.269-.09.359-.09l-1.7-1.7C439.326,457.269,439.147,457.358,439.057,457.358Zm-.807.269,1.615,1.615a.809.809,0,0,0,.448-.09l-1.615-1.615A.672.672,0,0,0,438.25,457.628Zm-2.332-19.735.538.538A1.524,1.524,0,0,0,435.917,437.893Zm-2.153-.179,1.7,1.7h.538l-1.7-1.7Zm-1.076,0,1.7,1.7h.538l-1.7-1.7Zm-.987,0,1.7,1.7h.538l-1.7-1.7Zm-1.076,0,1.7,1.7h.538l-1.7-1.7Zm6.638,9.688.628.628A2.1,2.1,0,0,0,437.263,447.4Zm-.718-.179H436.1l1.7,1.7h.179c0-.09.09-.179.09-.269l-1.525-1.435Zm-1.525,0,1.7,1.7h.538l-1.7-1.7Zm-.987,0,1.7,1.7h.538l-1.7-1.7Zm-1.076,0,1.7,1.7h.538l-1.7-1.7Zm-.987,0,1.7,1.7h.538l-1.7-1.7Zm-.987,0,1.7,1.7h.538l-1.7-1.7Zm-.538,0v.538l1.884,1.884v-.538l-1.884-1.884Zm6.907,10.5,1.615,1.615h.448l-1.615-1.615Zm-.807,0h-.179l1.525,1.525h.538l-1.525-1.525Zm-1.256,0,1.525,1.525h.538l-1.525-1.525Zm-.987,0,1.525,1.525h.538l-1.525-1.525Zm-1.076,0,1.525,1.525h.538l-1.525-1.525Zm-.987,0,1.525,1.525h.538l-1.525-1.525Zm-.987,0,1.525,1.525h.538l-1.525-1.525Zm-.628,0h-.359l1.525,1.525h.538l-1.525-1.525Zm-1.435,0,1.525,1.525h.538l-1.525-1.525Zm-.987,0,1.525,1.525h.538l-1.525-1.525Zm-1.076,0,1.525,1.525h.538l-1.525-1.525Zm-.987,0,1.525,1.525h.538l-1.525-1.525Zm-1.076,0,1.525,1.525h.538l-1.525-1.525Zm-.987,0,1.525,1.525h.538l-1.525-1.525Zm46.466-13.725,1.525,1.525v-.538l-1.525-1.525Zm0,.987,1.525,1.525v-.538l-1.525-1.525Zm0,.987,1.525,1.525v-.538l-1.525-1.525ZM459.6,437.624h0l1.435,1.615c.09-.09.179-.09.269-.179l-1.525-1.525A.313.313,0,0,1,459.6,437.624Zm-.718.448,1.615,1.615c.09-.09.179-.179.269-.179l-1.615-1.615C459.061,437.982,458.971,437.982,458.881,438.072Zm-.628.449,1.615,1.615.269-.269-1.615-1.615Zm-.538.448,1.615,1.615.269-.269-1.615-1.615Zm-.538.538,1.615,1.7.269-.269-1.615-1.615C457.357,439.328,457.267,439.418,457.177,439.508Zm-.448.538,1.7,1.7c.09-.09.179-.179.179-.269l-1.7-1.7C456.908,439.866,456.818,439.956,456.729,440.046Zm-.449.628,1.7,1.7c.09-.09.09-.179.179-.269l-1.7-1.7A1.113,1.113,0,0,0,456.28,440.674Zm-.359.628,1.7,1.7c.09-.09.09-.179.179-.359l-1.7-1.7C456.011,441.032,456.011,441.212,455.921,441.3Zm-.269.718,1.7,1.7c0-.09.09-.269.09-.359l-1.7-1.7C455.742,441.84,455.742,441.929,455.652,442.019Zm-.09.807v.09l1.615,1.615a.975.975,0,0,1,.09-.448l-1.615-1.615A.678.678,0,0,0,455.562,442.826Zm0,1.166,1.525,1.525v-.538l-1.525-1.525Zm0,.987,1.525,1.525v-.538l-1.525-1.525Zm0,1.077,1.525,1.525v-.448l-1.525-1.525Zm0,.987,1.525,1.525v-.538l-1.525-1.525Zm0,1.076,1.525,1.525v-.538l-1.525-1.525Zm0,.987,1.525,1.525v-.538l-1.525-1.525Zm0,1.076,1.525,1.525v-.538l-1.525-1.525Zm0,.987,1.525,1.525v-.538l-1.525-1.525Zm0,.987,1.525,1.525v-.538l-1.525-1.525Zm0,1.076,1.525,1.525v-.538l-1.525-1.525Zm0,.987,1.525,1.525v-.538l-1.525-1.525Zm0,1.076,1.525,1.525v-.538l-1.525-1.525Zm0,.987,1.525,1.525v-.538l-1.525-1.525Zm0,.987h0l1.525,1.615v-.538l-1.525-1.525Zm-.448.449h-.09l1.525,1.525h.538l-1.525-1.525Zm-1.166,0,1.525,1.525h.538l-1.525-1.525Zm-.987,0,1.525,1.525h.538l-1.525-1.525Zm-.987,0,1.525,1.525h.538l-1.525-1.525Zm-1.076,0,1.525,1.525h.538l-1.525-1.525Zm-.987,0,1.525,1.525h.538l-1.525-1.525Zm-1.077,0,1.525,1.525h.538l-1.525-1.525Zm21.439-19.2-1.076-1.615-.449-.449c.179.359.449.718.628,1.076Zm-.269.807,1.256,1.256c-.09-.269-.269-.628-.359-.9l-1.076-1.076A2.771,2.771,0,0,0,470,439.328Zm.359,1.346,1.435,1.435c-.09-.269-.09-.448-.179-.718l-1.346-1.346A1.526,1.526,0,0,0,470.364,440.674Zm.09,1.166,1.525,1.525c0-.179-.09-.448-.09-.628l-1.435-1.435Zm.09.987h0l1.525,1.615V443.9l-1.525-1.525Zm0,4.216,1.525,1.525v-.538l-1.525-1.525Zm0,.987,1.525,1.525v-.538l-1.525-1.525Zm0,1.076,1.525,1.525v-.538l-1.525-1.525Zm0,.987,1.525,1.525v-.538l-1.525-1.525Zm0,.987,1.525,1.525v-.538l-1.525-1.525Zm0,1.076,1.525,1.525v-.538l-1.525-1.525Zm0,.987,1.525,1.525v-.538l-1.525-1.525Zm0,1.076,1.525,1.525v-.538l-1.525-1.525Zm0,.987,1.525,1.525v-.538l-1.525-1.525Zm0,.987,1.525,1.525v-.538l-1.525-1.525Zm0,1.076,1.525,1.525v-.538l-1.525-1.525Zm-.538.449h0l1.525,1.525h.538l-1.525-1.525Zm-.987,0,1.525,1.525h.538l-1.525-1.525Zm-1.076,0,1.525,1.525H470l-1.525-1.525Zm-.987,0,1.525,1.525h.538l-1.525-1.525Zm-1.077,0,1.525,1.525h.538l-1.525-1.525Zm-.987,0,1.525,1.525h.538l-1.525-1.525Zm-.987,0,1.525,1.525h.538l-1.525-1.525Zm31.665-5.92,1.525,1.525v-.538l-1.525-1.525Zm0,.987,1.525,1.525v-.538l-1.525-1.525Zm0,.987L497.1,455.3v-.538l-1.525-1.525Zm0,1.076,1.525,1.525v-.538l-1.525-1.525Zm0,.987,1.525,1.525v-.538L495.57,455.3Zm0,.987,1.525,1.525V457.9l-1.525-1.525Zm0,.9h-.09l1.525,1.525h.09v-.449l-1.525-1.525Zm-1.166,0,1.525,1.525h.538l-1.525-1.525Zm-.987,0,1.525,1.525h.538l-1.525-1.525Zm-14.263,0,1.525,1.525h.538l-1.525-1.525Zm-.987,0,1.525,1.525h.538l-1.525-1.525Zm-1.076,0,1.525,1.525h.538l-1.525-1.525Zm-.987,0,1.525,1.525h.538l-1.525-1.525Zm-.987,0,1.525,1.525h.538l-1.525-1.525Zm-1.076,0,1.525,1.525h.538l-1.525-1.525Zm-50.862-.807.359.359h13.007a8.422,8.422,0,0,0,8.432-8.432,8.269,8.269,0,0,0-2.6-6.01,8.217,8.217,0,0,0,.987-3.857,8.587,8.587,0,0,0-8.342-8.342H423.179Zm.359-26.014H435.02a7.6,7.6,0,0,1,7.625,7.625,7.525,7.525,0,0,1-.987,3.678l-.09.269.179.179.09.09a8.044,8.044,0,0,1,1.346,1.7,7.684,7.684,0,0,1,1.076,3.947,8.04,8.04,0,0,1-8.073,8.073H423.538Zm5.113,5.92h-4.306v19.017h4.306Zm-3.588.718h.269v17.941h-.269Zm.628,0h.359v17.941h-.359Zm.718,0h.359v17.941h-.359Zm.718,17.851V437.444h.359v17.941h-.359Zm.718-17.851h.359v17.941h-.359Zm8.342,13.186a2.3,2.3,0,0,0,2.243-1.884v-.359a1.8,1.8,0,0,0-.359-1.166,3.908,3.908,0,0,0-.538-.628,2.2,2.2,0,0,0-1.346-.448h-6.728v4.485Zm0-.359h-3.857v-.179l-1.884-1.884v.538l1.615,1.615h-.538l-1.076-1.076v.538l.538.538h-.538l-.09-.09v.09h-.269v-3.678h7a2.217,2.217,0,0,1,.807.359h0a3.18,3.18,0,0,1,.359.807h0v.269A2.3,2.3,0,0,1,436.186,450.362Zm-1.166-10.047a1.833,1.833,0,0,0,1.794-1.435v-.359a1.516,1.516,0,0,0-.269-.9,2.381,2.381,0,0,0-.449-.538,1.705,1.705,0,0,0-1.166-.448h-5.651v3.588h5.741Zm1.256-1.076c0-.09.09-.09.09-.179A.313.313,0,0,1,436.276,439.238Zm.09-.179c0-.09,0-.09.09-.179C436.366,438.969,436.366,438.969,436.366,439.059Zm-.987-1.615h.09a1.019,1.019,0,0,1,.718.269h0c.09.09.09.179.179.359h0v.09h0v.09h0v.179h0a.539.539,0,0,1-.09.359l-1.166-1.166h-.538l1.525,1.525a1.432,1.432,0,0,1-1.256.718H432.15v-.09l-1.884-1.884v.538l1.435,1.435h-.538l-.9-.9v.538l.449.448H430v-2.512Zm4.844,4.934h0a.278.278,0,0,0-.179-.09,3.9,3.9,0,0,0-.628-.359c-.179-.09-.448-.179-.628-.269s-.449-.179-.628-.269-.448-.09-.628-.179a6.784,6.784,0,0,0-1.346-.09h-6.728v4.306h6.728a2.9,2.9,0,0,1,1.884.718,2.8,2.8,0,0,1,.807.987,3.758,3.758,0,0,1,.359,1.346,3.025,3.025,0,0,1-3.05,3.05h-6.728v4.306h6.728a7.413,7.413,0,0,0,7.356-7.176v-.179a7.056,7.056,0,0,0-2.063-5.023A4.722,4.722,0,0,0,440.223,442.378ZM443,447.67v2.063a6.615,6.615,0,0,1-.359,1.256v-5.113a3.187,3.187,0,0,0-.359-.807v6.548a1.878,1.878,0,0,1-.359.538v-7.625c-.09-.179-.269-.359-.359-.538v8.7a.7.7,0,0,1-.359.359v-9.509a3.576,3.576,0,0,1-.359-.269V453.5a1.241,1.241,0,0,1-.359.269V443.1c-.09-.09-.269-.179-.359-.269v11.213a1.237,1.237,0,0,1-.359.269V442.647h0l.538.269c.09.09.179.09.179.179.179.179.448.359.628.538a7.177,7.177,0,0,1,1.794,3.588Zm-3.857,7.087h0V450.9c.09-.18.269-.359.359-.538v4.216C439.416,454.578,439.326,454.667,439.147,454.757Zm-.628.269h0v-3.5c.09-.09.269-.179.359-.269v3.678C438.7,454.936,438.608,454.936,438.519,455.026Zm-.718.179h0v-3.319c.09-.09.269-.09.359-.179v3.409A.678.678,0,0,1,437.8,455.206Zm-.718.179h0v-3.229c.09,0,.269-.09.359-.09V455.3A.539.539,0,0,0,437.084,455.385Zm-.718,0h0v-3.229h.269v3.229Zm-1.346,0h0v-3.229h.359v3.229Zm-.718,0h0v-3.229h.359v3.229Zm-.718,0h0v-3.229h.359v3.229Zm-.718,0h0v-3.229h.359v3.229Zm-.628,0h0v-3.229h.359v3.229Zm-.718,0h0v-3.229h.359v3.229Zm-.718,0h0v-3.229h.359v3.229Zm-.718,0h0v-3.229h.359v3.229Zm4.934-13.545h.359v3.229h-.359Zm-.718,0h.359v3.229H434.3Zm-.718,0h.359v3.229h-.359Zm-.718,0h.359v3.229h-.359Zm-.628,0h.359v3.229h-.359Zm-.718,0h.359v3.229h-.359Zm-.718,0h.359v3.229H430.8Zm-.718,0h.359v3.229h-.359Zm8.432.269c.09,0,.269.09.359.09v4.126l-.09-.09-.269-.269Zm-1.794,3.05h-.359v-3.229h.359m.359-.09h.359v3.409c-.09-.09-.18-.09-.359-.09Zm.718.09c.09,0,.269.09.359.09V445.7a.466.466,0,0,0-.359-.179Zm1.346.448a.313.313,0,0,1,.179.09c.09,0,.09,0,.179.09v4.754a1.878,1.878,0,0,0-.359-.538Zm-3.5-.538h.359v3.229h-.359Zm0,13.545v-3.14h.359v3.229l-.359-.09Zm-.628-19.466a2.76,2.76,0,0,1,2.332,1.435,2.388,2.388,0,0,1,.269,1.076,2.417,2.417,0,0,1-.448,1.346l-.269.449.448.09h.179c.269.09.628.09.9.18.179.09.359.09.538.179s.359.09.538.179c.09.09.179.09.359.179a7.884,7.884,0,0,1,.9.538l.359.269.09-.269.09-.09a6.472,6.472,0,0,0,.718-2.87v-.179a7.015,7.015,0,0,0-6.907-6.907H424.435v4.306H435.02Zm2.96,4.306c.09-.179.179-.269.179-.449v.538C438.16,440.225,438.07,440.225,437.981,440.225Zm.179-2.243a1.8,1.8,0,0,0-.359-.718v-4.4c.09.09.269.09.359.179Zm-1.435-1.794c-.09-.09-.269-.179-.359-.269v-3.5a.54.54,0,0,1,.359.09Zm-1.076-3.857h.359v3.409c-.09,0-.269-.09-.359-.09Zm-10.585,0h.269v3.229h-.269Zm.628,0h.359v3.229h-.359Zm.718,0h.359v3.229h-.359Zm.718,0h.359v3.229h-.359Zm.718,0h.359v3.229h-.359Zm.718,0h.359v3.229h-.359Zm.718,0h.359v3.229h-.359Zm.718,0h.359v3.229H430Zm.718,0h.359v3.229h-.359Zm.718,0h.359v3.229h-.359Zm.718,0h.359v3.229h-.359Zm.718,0h.359v3.229h-.359Zm.628,0h.359v3.229H433.5Zm.718,0h.359v3.229h-.359Zm.718,3.229v-3.229h.359v3.229Zm2.153.9V432.6c.09,0,.269.09.359.09v4.126l-.18-.179C437.263,436.547,437.173,436.547,437.084,436.458Zm4.485,2.063c0,.448-.09.9-.09,1.346v-2.691a5.8,5.8,0,0,0-.359-1.166v5.113c-.09.179-.09.269-.179.449-.09,0-.09-.09-.179-.09V435.2c-.09-.179-.269-.269-.359-.449v6.459c-.09-.09-.269-.09-.359-.179v-6.817c-.09-.09-.269-.179-.359-.269v6.907h-.09c-.09,0-.179-.09-.269-.09v-7c-.09-.09-.269-.179-.359-.269v7.087c-.09,0-.269-.09-.359-.09v-7.176a5.515,5.515,0,0,1,2.96,5.2ZM470,442.826a12.193,12.193,0,0,0-3.857-8.791c-.449-.448-.9-.9-1.435-1.346A14.607,14.607,0,0,0,460.048,430l-1.256-.449-1.166.538h0a15.255,15.255,0,0,0-3.857,2.332c-3.14,2.422-5.562,5.92-5.562,10.047V456.91l.359.359h6.548V442.826c0-.807.359-3.319,4.306-5.651a8.183,8.183,0,0,1,2.063,1.525,5.672,5.672,0,0,1,1.7,3.857V457l.359.359h6.548V442.826Zm-8.253-4.4a9.652,9.652,0,0,0-2.512-1.884l-.179-.09-.179.09a10.415,10.415,0,0,0-3.768,3.588,4.839,4.839,0,0,0-.718,2.422v14.083h-5.831V442.557a10.955,10.955,0,0,1,1.525-5.472,15.714,15.714,0,0,1,3.857-4.306h0a13.973,13.973,0,0,1,3.768-2.243h0l1.076-.448.179.09.9.359a15.259,15.259,0,0,1,4.575,2.691c.538.448.987.807,1.435,1.256a11.556,11.556,0,0,1,3.409,8.163v14.083h-5.831V442.647A6,6,0,0,0,461.752,438.431Zm2.512,16.954v.359h4.306V442.468a10.525,10.525,0,0,0-3.229-7.625c-.448-.448-.9-.807-1.345-1.256a15.985,15.985,0,0,0-4.4-2.512l-.628-.269-.09-.09-.09.09-.628.269c-.09.09-2.063,1.076-3.14,1.794a5.294,5.294,0,0,0-.538.359l-.538.448.628.179h.09a11.61,11.61,0,0,1,1.794.538c.269.09.448.179.718.269a16.3,16.3,0,0,1,1.7.718,12.309,12.309,0,0,1,3.5,2.422,6.734,6.734,0,0,1,1.973,4.575v13.007Zm-3.05-18.927v-4.037c.09.09.269.09.359.179v4.126C461.483,436.727,461.3,436.547,461.214,436.458Zm-2.6-1.435c-.09-.09-.269-.09-.359-.179v-2.781a1.109,1.109,0,0,0,.269-.179h.09Zm-2.153-.9c-.09,0-.269-.09-.359-.09v-.718c.09-.09.269-.179.359-.269Zm-1.166-.359c.09-.09.179-.09.179-.179.09,0,.09-.09.179-.09v.448c-.09-.09-.179-.09-.359-.179Zm1.525-.9a.68.68,0,0,1,.359-.179v1.794a.54.54,0,0,0-.359-.09Zm.718-.449c.179-.09.269-.179.359-.179v2.422c-.09-.09-.269-.09-.359-.18Zm1.435-.718.179-.09.179.09v3.678c-.179-.09-.269-.09-.359-.179Zm1.166,4.037a.68.68,0,0,0-.359-.179v-3.768l.179.09a.694.694,0,0,1,.269.09v3.768Zm.359.269v-3.857c.09.09.269.09.359.179v3.947C460.765,436.188,460.586,436.1,460.5,436.009Zm1.435-3.14a.681.681,0,0,0,.359.179v4.4l-.359-.359Zm6.279,22.516h-.359V439.956a5.059,5.059,0,0,0-.359-1.076v16.505h-.359V438.072c-.09-.179-.269-.448-.359-.628v18.031h-.359V436.906c-.09-.179-.269-.359-.359-.538v19.107H465.7V435.919c-.09-.179-.269-.269-.359-.449v20h-.359V442.916a3.363,3.363,0,0,0-.09-.9v-6.907l-.359-.359v5.831c-.09-.269-.269-.538-.359-.807v-5.382c-.09-.09-.269-.179-.359-.269v5.023c-.09-.179-.269-.359-.359-.538v-4.844c-.09-.09-.269-.179-.359-.269v4.665c-.09-.179-.269-.269-.359-.359v-4.575a7.48,7.48,0,0,1,1.435,1.076c.359.269.628.538.987.807a10.246,10.246,0,0,1,3.05,7.356v12.917ZM455.832,435.2a2.11,2.11,0,0,0-.718-.179,6.568,6.568,0,0,1-.718-.179l-.987-.269-.18-.09-.179.18a11.167,11.167,0,0,0-3.768,7.984v13.276h4.306V442.647c0-1.525.718-3.857,3.947-6.1h0l.359-.269.179-.179-.628-.269A6.731,6.731,0,0,0,455.832,435.2ZM450,442.826a9.58,9.58,0,0,1,.269-2.243v14.8H450Zm.628-3.319a9.328,9.328,0,0,0,.359-.9v16.775h-.359Zm.718-1.525c.09-.179.269-.448.359-.628v18.03h-.359Zm.807-1.076a1.958,1.958,0,0,1,.359-.449v19.017h-.359Zm.718-.9c.09-.179.269-.269.359-.449v19.825h-.359Zm.718,4.575v-5.293l.09-.09.269.09v4.485A3.519,3.519,0,0,0,453.589,440.584Zm.718-5.2.359.09h.09v3.14c-.09.179-.269.359-.359.538v-3.768Zm.718.179c.09,0,.179.09.269.09h.09v2.063a1.958,1.958,0,0,0-.359.449Zm.807.179c.09,0,.179.09.269.09h.09V437c-.09.09-.269.179-.359.359Zm.718.269c.09,0,.269.09.359.09v.269c-.09.09-.269.179-.359.269Zm63.6,6.817a11.864,11.864,0,0,0-3.947-8.612,7.748,7.748,0,0,0-1.256-1.166c-.269-.179-.449-.359-.718-.538a21.024,21.024,0,0,0-3.857-2.332l-1.166-.538-1.256.448c-5.2,1.884-9.688,6.728-9.688,12.469V457l.359.359h6.548V442.916c0-2.6,1.973-4.485,4.126-5.651l.538.269a.313.313,0,0,0-.179.09l1.615,1.615c.09-.09.179-.09.269-.179l-1.076-1.077a9.54,9.54,0,0,1,.987.807,5.729,5.729,0,0,1,1.7,3.678V456.91l.359.359h6.548V442.826Zm-7.266-2.691a6.271,6.271,0,0,0-1.166-1.525,9.927,9.927,0,0,0-2.6-1.974l-.179-.09-.179.09a9.987,9.987,0,0,0-2.96,2.422,5.586,5.586,0,0,0-1.346,3.588v14.083H498.62V442.647A11.988,11.988,0,0,1,501.4,435.2a15.2,15.2,0,0,1,6.638-4.665l1.076-.359.179.09.9.359a21.784,21.784,0,0,1,3.768,2.243,3.9,3.9,0,0,1,.628.538,16.068,16.068,0,0,1,1.256,1.166,11.238,11.238,0,0,1,3.5,8.073v14.083H513.6V442.647A4.885,4.885,0,0,0,512.883,440.135Zm.718-6.19.448-.09h0l-.538-.449a13.435,13.435,0,0,0-3.588-2.153l-.628-.269-.09-.09-.09.09-.628.269a15.148,15.148,0,0,0-6.19,4.306,10.894,10.894,0,0,0-2.691,7v13.276h4.306V442.557a7.011,7.011,0,0,1,3.229-5.741,19.679,19.679,0,0,1,6.459-2.87Zm-13.366,8.073a12.881,12.881,0,0,1,.359-1.974v15.339h-.359Zm.718-2.96c.09-.269.269-.538.359-.807v17.223h-.359Zm.718-1.435a3.9,3.9,0,0,0,.359-.628v18.389h-.359Zm.718-1.076a1.955,1.955,0,0,1,.359-.449v19.376h-.359Zm.987,18.838h-.269V435.56c.09-.179.269-.269.359-.359v5.92a6.929,6.929,0,0,0-.179,1.346v12.917Zm.538-20.542.359-.359v4.665a3.184,3.184,0,0,0-.359.807Zm.718-.628c.09-.09.269-.179.359-.269v4.216a1.955,1.955,0,0,1-.359.449Zm.718-.538c.09-.09.269-.179.359-.269v3.947l-.359.359Zm.718-.538c.09-.09.269-.179.359-.269v3.768c-.09.09-.269.179-.359.269Zm.718,3.319V432.78a.681.681,0,0,1,.359-.179v3.678C507.052,436.278,506.963,436.368,506.783,436.458Zm.807-4.126c.09-.09.269-.09.359-.179v3.588c-.09.09-.269.179-.359.269Zm.718-.269c.09-.09.269-.09.359-.179v3.409c-.09.09-.269.09-.359.179Zm.718-.269.359-.179v3.409c-.09.09-.269.09-.359.179Zm.718-.09.359.179h0v2.781c-.09.09-.269.09-.359.179Zm.807.359c.09.09.269.09.359.179v2.153c-.09.09-.269.09-.359.179Zm1.794.987v.807c-.09,0-.269.09-.359.09V432.78a.681.681,0,0,0-.359-.179v1.525c-.09,0-.269.09-.359.09v-1.884a.088.088,0,0,1-.09-.09,10.63,10.63,0,0,1,1.973,1.256h0v.179c-.09,0-.269.09-.359.09v-.538C512.614,433.228,512.524,433.138,512.345,433.049Zm2.063,22.336v.359h4.306V442.468a10.533,10.533,0,0,0-3.319-7.445l-.448-.449-.18-.179-.179.09-.987.269a26.111,26.111,0,0,0-3.14,1.076l-.628.269.449.359.09.09a9.327,9.327,0,0,1,1.973,1.7,6.4,6.4,0,0,1,1.974,4.485v12.648Zm-1.166-19.735v2.781c-.09-.179-.269-.269-.359-.448V435.74A.539.539,0,0,0,513.242,435.65Zm.718,3.768c-.09-.179-.269-.359-.359-.538V435.56c.09,0,.269-.09.359-.09Zm.718,1.435c-.09-.269-.269-.538-.359-.807v-4.665l.359-.09Zm-3.319-4.126v-.359c.09-.09.269-.09.359-.179V437A1.237,1.237,0,0,0,511.358,436.727Zm.807-.718c.09,0,.269-.09.359-.09v1.794l-.359-.359Zm4.037.448v18.927h-.359V436.009c-.09-.179-.269-.269-.359-.449v19.825h-.359V435.2l-.09-.09h0l.09.09a14.69,14.69,0,0,1,1.794,2.332v17.851h-.359V436.906A1.964,1.964,0,0,1,516.2,436.458Zm1.076,1.794a3.188,3.188,0,0,1,.359.807v16.326h-.359Zm1.076,17.133h-.269v-15.25a10.34,10.34,0,0,1,.269,2.332Zm21.26-8.791a8.462,8.462,0,0,0,1.435-13.456,8.6,8.6,0,0,0-6.19-2.691H523.289V437h0V456.82l.359.359H530.2V447.67h2.243l5.293,9.15.359.359h7.625Zm-5.472,3.229h0L532.8,447.4l-.09-.179-.09-.179h-2.871v9.509h-5.831V436.727h0V430.9H535.13a8.068,8.068,0,0,1,5.92,2.6,8.187,8.187,0,0,1,2.243,5.562,7.769,7.769,0,0,1-1.077,4.037,8.779,8.779,0,0,1-2.87,2.87l-.269.179.179.269,5.831,10.137h-6.817Zm1.525-3.588a10.428,10.428,0,0,0,1.615-.359,6.947,6.947,0,0,0,1.435-.628,7.236,7.236,0,0,0,3.588-6.279c0-.448-.09-.9-.09-1.345a7.564,7.564,0,0,0-1.794-3.588,7.385,7.385,0,0,0-5.382-2.422H524.634v4.306H535.04a3.817,3.817,0,0,1,.987.179,3.188,3.188,0,0,1,1.435.987,2.815,2.815,0,0,1,.628,1.884,3.019,3.019,0,0,1-3.05,3.05h-5.382v4.4h5.293C535.219,446.325,535.4,446.325,535.668,446.235Zm2.512-8.7a1.958,1.958,0,0,0-.359-.449v-4.126c.09.09.269.09.359.179Zm-1.794-5.023a.54.54,0,0,1,.359.09v3.5a.68.68,0,0,0-.359-.179Zm.718.179c.09,0,.269.09.359.09v3.947l-.359-.359Zm-1.435,13.186v-3.05h.359v3.05Zm.718-3.14a.68.68,0,0,0,.359-.179v3.14c-.09,0-.269.09-.359.09Zm.807,2.87h0l-.09-3.229a.088.088,0,0,0,.09-.09c.09-.09.179-.09.269-.179v3.319C537.372,445.518,537.283,445.518,537.193,445.607Zm.628-3.768a1.578,1.578,0,0,0,.359-.449v3.768c-.09.09-.269.09-.359.179Zm.718,3.05v-4.216a2.864,2.864,0,0,0,.269-1.256,3.165,3.165,0,0,0-.269-1.256v-5.023c.09.09.269.09.359.179v11.213A.7.7,0,0,1,538.538,444.89Zm3.409-5.831v.359a6.988,6.988,0,0,1-.359,1.884v-4.485a3.185,3.185,0,0,0-.359-.807v6.19a3.9,3.9,0,0,1-.359.628v-7.445c-.09-.179-.269-.359-.359-.538v8.432c-.09.179-.269.269-.359.448v-9.329l-.359-.359v10.047c-.09.09-.269.179-.359.359V433.677a4.934,4.934,0,0,1,.807.628,7.656,7.656,0,0,1,1.7,4.754Zm-16.6-6.548h.269v3.14h-.269Zm.718,0h.359v3.14h-.359Zm.718,0h.359v3.14h-.359Zm.718,0h.359v3.14H527.5Zm.718,0h.359v3.14h-.359Zm.807,0h.359v3.14h-.359Zm.718,0h.359v3.14h-.359Zm.718,0h.359v3.14h-.359Zm.718,0h.359v3.14h-.359Zm.718,0h.359v3.14H531.9Zm.807,0h.359v3.14h-.359Zm.718,0h.359v3.14h-.359Zm.718,0h.359v3.14h-.359Zm.718,3.05v-3.14h.359v3.14Zm.807.09v-3.14h.359v3.229C535.847,435.74,535.758,435.65,535.668,435.65Zm-5.2,7.176h.359v3.14h-.359Zm.718,3.14v-3.14h.359v3.14h-.359Zm.718-3.14h.359v3.14H531.9Zm.807,0h.359v3.14h-.359Zm.718,0h.359v3.14h-.359Zm.718,0h.359v3.14h-.359Zm.718,3.14v-3.14h.359v3.14Zm-4.754-4.754h4.844a2.62,2.62,0,0,0,.807-.179h0l.359-.179a2.221,2.221,0,0,0,.987-1.884v-.179a1.486,1.486,0,0,0-.449-1.076,2.342,2.342,0,0,0-1.794-.9h-5.293V441.3h.538Zm6.728-1.973a1.107,1.107,0,0,0-.359-.718l-.09-.09a1.593,1.593,0,0,0-.9-.359l1.256,1.256a1.581,1.581,0,0,1-.807,1.166h0l-.359.179a1.748,1.748,0,0,1-.718.09h-2.6v-.269l-1.435-1.435v.538l1.256,1.256h-.538l-.718-.718v.538l.179.179h-.628v-3.319h4.934a1.566,1.566,0,0,1,1.076.359,1.923,1.923,0,0,1,.359,1.076A.33.33,0,0,1,536.834,439.238ZM543.2,455.3l-4.754-8.253-.179-.269-.18-.269-.269.09a6.721,6.721,0,0,1-1.435.359c-.179,0-.448.09-.628.09h-2.332l.269.538,4.575,7.984.09.179h5.023Zm-8.073-6.369-.359-.628v-.359h.359Zm.718,1.256-.359-.628V447.94h.359Zm.807,1.256-.359-.628v-2.96h0a.539.539,0,0,0,.359-.09Zm.718,1.346-.359-.628V447.85c.09,0,.269-.09.359-.09Zm.718,1.256-.359-.628v-5.831c.09,0,.269-.09.359-.09Zm.09-6.728Zm.269,7.356V447.85l.359.628V455.3Zm.718.718v-6.369l.359.628V455.3Zm.718.09v-5.023l.359.628v4.4Zm.807,0v-3.857l.359.628v3.14Zm.718,0v-2.512l.359.628v1.884Zm.718,0v-1.256l.359.628v.628ZM524.9,436.816h-.359v19.017h4.306V436.816H524.9Zm.448.807h.179v17.851h-.179Zm.538,0h.359v17.851h-.359Zm.807,0h.359v17.851H526.7Zm.718,0h.359v17.851h-.359Zm1.076,3.229v14.622h-.359V437.624h.359ZM434.3,468.841c0,.09-.09.179-.09.359,0,.09-.09.269-.09.359a.329.329,0,0,0,.09.269v.09l-1.166-.448v-.09c.09,0,.179-.09.269-.179s.179-.179.179-.269c.09-.09.09-.179.179-.269a.278.278,0,0,0,.09-.179l.538-1.346.359-.269h-.538c-.09,0-.09,0-.179-.09-.09,0-.09-.09-.179-.09v-.09c.09,0,.269-.09.359-.09.09-.09.179-.09.359-.179.09-.09.179-.09.269-.179s.179-.09.269-.179l.628.269v.09c-.09,0-.09.09-.179.09l-.179.179a.313.313,0,0,1-.09.179c0,.09-.09.09-.09.179l-.718,1.7C434.3,468.661,434.3,468.751,434.3,468.841Zm2.96-.628h.359a3.884,3.884,0,0,0,.449.09,2.983,2.983,0,0,1,.538.269.9.9,0,0,1,.359.449,1.275,1.275,0,0,1,.179.538,1.138,1.138,0,0,1-.09.538,1.878,1.878,0,0,1-.359.538l-.538.269a.982.982,0,0,1-.718,0,1.691,1.691,0,0,1-.718-.179,1.274,1.274,0,0,0-.538-.179,1.237,1.237,0,0,1-.359-.269l-.269-.269c-.09-.09-.09-.179-.179-.269l.448-.718h.09a.329.329,0,0,0,.09.269c0,.09.09.179.179.359l.359.359a1.458,1.458,0,0,0,.538.269,1.137,1.137,0,0,0,.538.09c.179,0,.269,0,.359-.09.09,0,.179-.09.269-.179s.09-.179.18-.179v-.269c0-.09-.09-.179-.09-.269-.09-.09-.09-.179-.269-.269a.466.466,0,0,0-.359-.18c-.09,0-.179-.09-.269-.09h-.807c0-.09-.09-.179-.09-.269-.09-.09-.09-.179-.179-.179v-.09l.9-1.525,2.243.807.449.09h0l-.807.718h-.09c0-.09,0-.179-.09-.179-.09-.09-.179-.09-.269-.179l-1.166-.449Zm4.126,3.05c0,.09-.09.179-.09.359v.359a.329.329,0,0,0,.09.269v.09l-1.256-.359v-.09a.193.193,0,0,0,.179-.179c.09-.09.09-.179.179-.269s.09-.179.179-.269c0-.09.09-.179.09-.269l.448-1.346.269-.269h-.718c-.09,0-.09,0-.179-.09v-.09a.679.679,0,0,0,.359-.18c.09-.09.18-.09.269-.179s.179-.09.269-.179l.179-.179.628.179v.09c-.09,0-.09.09-.179.179s-.09.09-.09.179a737.292,737.292,0,0,1-.179.359l-.538,1.794C441.479,471.083,441.389,471.173,441.389,471.262Zm5.023,1.077c0,.179,0,.269.09.359s.179.269.269.359l.538.269a1.752,1.752,0,0,0,.628.09c.179,0,.269-.09.449-.18l.269-.269c.09-.09.09-.269.179-.449l.359-1.435v-.538c0-.09,0-.09-.09-.179v-.09l1.166.269v.09c-.09,0-.09.09-.179.09,0,.09-.09.09-.09.179s-.09.09-.09.179,0,.09-.09.179l-.359,1.525a4.382,4.382,0,0,1-.269.628,2.844,2.844,0,0,1-.538.448,1.689,1.689,0,0,1-.718.179,2.485,2.485,0,0,1-.807-.09l-.807-.269a2.382,2.382,0,0,1-.538-.449,4.381,4.381,0,0,1-.269-.628v-.718l.359-1.525v-.538c0-.09,0-.09-.09-.179v-.09l1.166.269v.09c-.09,0-.09.09-.179.09,0,.09-.09.09-.09.179s-.09.09-.09.18,0,.09-.09.179l-.359,1.435C446.413,472.07,446.413,472.16,446.413,472.339Zm5.562-1.525.449.179,2.871.628v.09c-.09,0-.09.09-.179.09-.09.09-.179.09-.179.179l-.179.179-.179.179-2.512,2.063h0l.628.09a.975.975,0,0,1,.448.09,1.138,1.138,0,0,1,.538.09h.987l-.718.718-3.409-.718v-.09l3.319-2.691h0l-1.076-.179c-.269,0-.538-.09-.807-.09h-.628l.628-.807Zm3.768,4.934h0c.09-.09.09-.179.179-.269,0-.09.09-.179.09-.359,0-.09.09-.269.09-.359v-.269l.359-1.973v-.538c0-.09,0-.09-.09-.179v-.09l3.319.538.09.9h-.09a.69.69,0,0,0-.269-.179c-.09-.09-.179-.09-.359-.09-.09,0-.269-.09-.359-.09-.179,0-.269-.09-.448-.09L457,472.518l-.179.987,2.332.359v.09l-.538.628h-.09l-.09-.09c-.09,0-.09-.09-.179-.09s-.179-.09-.269-.09a.329.329,0,0,1-.269-.09l-1.076-.179-.179.987.9.179a.975.975,0,0,1,.448.09,1.138,1.138,0,0,1,.538.09h.987l-.628.718Zm6.369-2.96v.179c0,.09,0,.09.09.179a.313.313,0,0,0,.09.179l.09.179.448.9h0l.718-.718.179-.179.179-.179c.09-.09.09-.09.09-.179v-.269l1.166.179v.09c-.09,0-.09.09-.179.179l-.179.179-.179.179-.179.179-1.256,1.346-.09.538v.987a.329.329,0,0,0,.09.269v.09l-1.166-.179v-.09c.09,0,.09-.09.179-.179,0-.09.09-.179.09-.359,0-.09.09-.269.09-.359v-.269l.09-.538-.9-1.615-.09-.179-.179-.179c-.09-.09-.09-.179-.179-.179l-.179-.179v-.09l1.166.09Zm4.754,3.5V477c0,.09.09.179.09.269v.09l-1.256-.179v-.09c.09,0,.09-.09.179-.179s.09-.179.09-.359c0-.09.09-.269.09-.359v-.269l.179-1.974v-.359c0-.09,0-.179-.09-.179,0-.09-.09-.09-.09-.179v-.09l1.256.179v.09c-.09,0-.09.09-.179.179,0,.09-.09.09-.09.179s0,.09-.09.179v.179l-.18,1.974C466.865,476.107,466.865,476.2,466.865,476.286Zm3.409-.987c.09,0,.09.09.179.09h.179l.628.09a.672.672,0,0,0,.449-.09.466.466,0,0,0,.179-.359c0-.179,0-.269-.179-.359a.685.685,0,0,0-.449-.179l-1.7-.179-.179,2.153v.987a.313.313,0,0,0,.09.179v.09l-1.166-.09v-.09c.09,0,.09-.09.179-.179,0-.09.09-.179.09-.359a.539.539,0,0,1,.09-.359v-.269l.179-1.974v-.359c0-.09,0-.179-.09-.179,0-.09-.09-.09-.09-.179v-.09l2.691.179c.179,0,.448.09.628.09a1.962,1.962,0,0,1,.448.269c.09.09.179.269.269.359a1.137,1.137,0,0,1,.09.538.932.932,0,0,1-.359.718,1.1,1.1,0,0,1-.807.269h0l.269.538c.179.269.269.449.449.718.179.179.269.359.448.538v.09c-.09,0-.179.09-.269.09h-.269c-.179,0-.269,0-.359-.09s-.179-.09-.269-.179-.179-.179-.179-.269l-.179-.269-.628-.987-.807-.09v-.09l.448-.717Zm9.778-.359v-.359c0-.09,0-.09-.09-.179,0-.09-.09-.09-.09-.179v-.09h1.166v.09c-.09,0-.09.09-.09.179s-.09.09-.09.179v.359l-.09,1.974v.628a.539.539,0,0,0,.09.359c0,.09.09.179.09.269v.09h-1.166v-.09c.09,0,.09-.09.09-.179s.09-.179.09-.359v-1.076l-2.422-.09v1.076a.539.539,0,0,0,.09.359c0,.09.09.179.09.269v.09h-1.166v-.09c.09,0,.09-.09.09-.179s.09-.179.09-.359V477l.09-1.973v-.359c0-.09,0-.09-.09-.179,0-.09-.09-.09-.09-.179v-.09h1.166v.09c-.09,0-.09.09-.09.179s-.09.09-.09.179v1.166l2.422.09Zm2.063,3.14c.09,0,.09-.09.179-.269.09-.09.09-.179.179-.359.09-.09.09-.269.179-.359l.09-.269.9-1.974c0-.09.09-.09.09-.179a.313.313,0,0,1,.09-.179v-.179c0-.09,0-.09-.09-.18v-.09h1.256v.269c0,.09.09.179.09.269l1.076,2.153.09.269c.09.09.09.179.179.359.09.09.09.269.18.359s.09.179.179.179v.09h-1.166v-.09a.313.313,0,0,0,.09-.179v-.179c0-.09,0-.09-.09-.179l-.09-.179-.09-.09H483.46l-.09.09-.09.179c0,.09-.09.09-.09.179v.179c0,.09,0,.09.09.179v.09l-1.166.09Zm2.243-3.14h0l-.718,1.7h1.525Zm3.319,3.5a1.24,1.24,0,0,0,.269-.359.962.962,0,0,0,.179-.538,1.749,1.749,0,0,0,.09-.718l-.09-1.974v-.359c0-.09,0-.09-.09-.179,0-.09-.09-.09-.09-.179v-.09h1.166v.09c-.09,0-.09.09-.09.179s0,.09-.09.179v.359l.09,1.974a1.862,1.862,0,0,1-.359,1.346,2.028,2.028,0,0,1-1.166.538v-.09ZM491.713,477v.359c0,.09.09.269.09.359a.193.193,0,0,0,.179.179v.09l-1.256.09v-.09c.09-.09.09-.09.09-.269,0-.09.09-.179.09-.359v-.628l-.09-1.974V474.4c0-.09-.09-.09-.09-.18s-.09-.09-.179-.179v-.09l1.256-.09v.09l-.179.179c0,.09-.09.09-.09.18v.359l.09,1.974A.677.677,0,0,1,491.713,477Zm1.794.807c.09-.09.09-.09.09-.269v-.987l-.179-1.974v-.359c0-.09,0-.09-.09-.179,0-.09-.09-.09-.09-.179v-.09l2.781-.179a1.942,1.942,0,0,1,1.076.179.728.728,0,0,1,.359.718,1.138,1.138,0,0,1-.09.538.7.7,0,0,1-.359.359h0a1.876,1.876,0,0,1,.538.359,1.3,1.3,0,0,1,.179.628,1.139,1.139,0,0,1-.09.538,1.239,1.239,0,0,1-.269.359,1.96,1.96,0,0,1-.448.269,1.137,1.137,0,0,1-.538.09l-2.871.179Zm1.615-2.512c.09,0,.09.09.179.09h.179l.628-.09a.685.685,0,0,0,.449-.179c.09-.09.09-.179.09-.359,0-.09,0-.179-.09-.179,0-.09-.09-.09-.179-.09a.313.313,0,0,1-.179-.09h-.269l-1.7.09.179,2.691,1.794-.09a.54.54,0,0,0,.359-.09.193.193,0,0,0,.179-.18c.09-.09.09-.09.09-.179v-.179a.466.466,0,0,0-.179-.359c-.09-.09-.359-.09-.538-.09l-.987.09a3.888,3.888,0,0,0-.448.09h-.09l.538-.9Zm4.037,2.153h0c0-.09.09-.179.09-.269V476.2l-.179-1.974v-.359c0-.09-.09-.09-.09-.179s-.09-.09-.09-.179v-.09l3.409-.359.359.807h-.09c-.09,0-.179-.09-.269-.09h-1.166l-1.256.09.09.987,2.422-.269v.09l-.359.807h-.09a.278.278,0,0,1-.179-.09h-.718l-1.076.09.09.987.9-.09a.976.976,0,0,0,.448-.09c.179,0,.359-.09.538-.09s.359-.09.538-.09c.179-.09.359-.09.449-.179h0l-.359.9Zm5.292-4.575v.179c0,.09.09.09.09.179l.179.179.179.179.718.718h0l.448-.9.09-.179a.313.313,0,0,1,.09-.179c0-.09,0-.179.09-.179v-.269l1.166-.179v.09l-.179.179-.179.179c-.09.09-.09.179-.179.179l-.09.179-.9,1.615.09.538v.269a.679.679,0,0,0,.09.359c0,.09.09.179.09.359a.193.193,0,0,0,.179.179v.09l-1.166.179v-.09c0-.09.09-.09.09-.269v-.987l-.09-.538-1.345-1.256-.18-.179-.179-.179-.179-.179-.179-.179v-.09Zm6.818-1.076a1.447,1.447,0,0,1,.807.269,3.9,3.9,0,0,1,.628.538,3.184,3.184,0,0,1,.359.807,2.99,2.99,0,0,1,0,.9,1.8,1.8,0,0,1-.359.718,4.968,4.968,0,0,1-.718.538,3.156,3.156,0,0,1-1.794.269,1.447,1.447,0,0,1-.807-.269,3.9,3.9,0,0,1-.628-.538,3.185,3.185,0,0,1-.359-.807,2.989,2.989,0,0,1,0-.9,1.8,1.8,0,0,1,.359-.718,4.971,4.971,0,0,1,.718-.538,1.515,1.515,0,0,1,.9-.269Zm-1.435.9a.9.9,0,0,0-.449.359,2.991,2.991,0,0,0-.269.538.759.759,0,0,0,0,.628.543.543,0,0,0,.269.538.9.9,0,0,0,.449.359,1.275,1.275,0,0,0,.538.179H511a1.663,1.663,0,0,0,.628-.179.9.9,0,0,0,.449-.359,2.988,2.988,0,0,0,.269-.538.758.758,0,0,0,0-.628.542.542,0,0,0-.269-.538.9.9,0,0,0-.449-.359,1.276,1.276,0,0,0-.538-.179h-.628A1.664,1.664,0,0,0,509.833,472.7Zm8.253-2.332a.686.686,0,0,0-.179.448.809.809,0,0,0-.09.448l-.628,2.6v.538c0,.09.09.09.09.179v.09l-1.525.359v-.269c0-.09,0-.09-.09-.179,0-.09-.09-.09-.09-.179s-.09-.09-.09-.18l-1.435-1.973c-.09-.09-.09-.179-.179-.179-.09-.09-.09-.179-.179-.179l-.179-.179-.179-.179v-.09l1.166-.269v.269c0,.09,0,.09.09.179,0,.09.09.09.09.179s.09.09.09.179l1.525,2.153h0l.538-2.6v-.538c0-.09,0-.09-.09-.179v-.09l1.346-.359Zm6.818-.807a2.111,2.111,0,0,0-.718-.179,2.485,2.485,0,0,0-.807.09c-.179.09-.448.09-.538.18a1.24,1.24,0,0,0-.359.269c-.09.09-.09.18-.179.269v.179a.193.193,0,0,0,.179.179c.09,0,.179.09.269,0a.976.976,0,0,0,.449-.09,3.879,3.879,0,0,0,.448-.09c.18-.09.448-.09.628-.179.179,0,.448-.09.628,0a1.275,1.275,0,0,1,.538.179.824.824,0,0,1,.359.538,1.118,1.118,0,0,1-.269,1.076,2.4,2.4,0,0,1-1.435.718c-.269.09-.538.09-.718.179h-.538a.809.809,0,0,1-.449-.09l-.359-.09.09-.718h.09a1.791,1.791,0,0,0,.807.179,4.022,4.022,0,0,0,.987-.09c.179-.09.359-.09.448-.179a1.292,1.292,0,0,1,.269-.179c.09-.09.09-.179.179-.269v-.269a.193.193,0,0,0-.179-.179c-.09,0-.179-.09-.269-.09H524.1a3.875,3.875,0,0,1-.448.09c-.179,0-.269.09-.448.09s-.269.09-.449.09H522.3c-.18,0-.269,0-.359-.09s-.179-.09-.269-.18a.68.68,0,0,1-.179-.359.758.758,0,0,1,0-.628,1.65,1.65,0,0,1,.9-.9,6.162,6.162,0,0,1,.718-.269,1.751,1.751,0,0,1,.628-.09h1.256l-.09.9Zm1.346-1.525.448-.09,2.691-.9.359-.18h.09l-.179.987h-.09c-.09-.09-.09-.09-.179-.09a.679.679,0,0,0-.359.09l-.628.18.628,2.063c0,.09,0,.09.09.269,0,.09.09.179.09.359.09.09.09.179.179.269s.09.179.179.179v.09l-1.166.359v-.09c0-.09.09-.179.09-.269V470.9c0-.09-.09-.269-.09-.359s-.09-.179-.09-.269l-.628-2.063-.538.179-.538.269a1.239,1.239,0,0,0-.359.269h-.09l.09-.9Zm6.548-.538h.179c.09,0,.09,0,.179-.09l.628-.269c.179-.09.359-.179.359-.359a.407.407,0,0,0,0-.448q-.134-.269-.269-.269c-.179-.09-.269,0-.538,0l-1.615.628.807,1.973c0,.09.09.179.09.269s.09.179.179.269.09.179.179.269l.179.179v.09l-1.076.448v-.359a.678.678,0,0,0-.09-.359c0-.09-.09-.179-.09-.359,0-.09-.09-.179-.09-.269l-.718-1.884c0-.09,0-.09-.09-.179,0-.09-.09-.09-.09-.179s-.09-.09-.09-.179c-.09-.09-.09-.09-.179-.09v-.09l2.512-.987a5.72,5.72,0,0,1,.628-.179,1.137,1.137,0,0,1,.538.09,1.194,1.194,0,0,1,.448.269,1.959,1.959,0,0,1,.269.448,1.245,1.245,0,0,1,0,.807,1.414,1.414,0,0,1-.628.628h0l.538.269c.269.179.448.269.718.449a4.384,4.384,0,0,1,.628.269v.09l-.179.179a.278.278,0,0,1-.179.09.539.539,0,0,1-.359.09h-.359c-.09,0-.179-.09-.269-.179l-.269-.179-.987-.628-.807.269h0l-.09-.538Z" transform="translate(-423 -387.3)" fill="#e6b479"/>
</svg>
